<svg xmlns="http://www.w3.org/2000/svg">
<defs>
<font id="UTMFacebookK&T" horiz-adv-x="1277" >
  <font-face 
    font-family="UTM Facebook K&T"
    font-weight="400"
    font-stretch="normal"
    units-per-em="2048"
    panose-1="2 4 6 3 5 5 6 2 2 4"
    ascent="1638"
    descent="-410"
    x-height="997"
    cap-height="1364"
    bbox="-55 -438 4942 2085"
    underline-thickness="109"
    underline-position="-143"
    unicode-range="U+0020-2026"
  />
<missing-glyph horiz-adv-x="5040" 
d="M3351 2045h10q37 -10 37 -52q0 -12 -32 -57h-28q0 24 28 54l2 10q-5 13 -10 15h-9q-8 0 -10 -19h-30q6 49 42 49zM2019 2016l29 -31q0 -16 -40 -30h-19l-59 12l-11 -12l-28 25q11 29 43 29h11l42 -11h2q10 0 30 18zM468 1980h142v-60h-94v-75h89v-59h-89v-129l-5 -5h-49
v323zM1155 1980h43l6 -5v-78h30v-52h-30v-188l-6 -5h-49v193h-25v52h25v78zM1621 1980h42l4 -5v-94h3q23 24 54 24h2q58 0 83 -71l2 -39v-143h-52v115q0 80 -42 80h-7q-43 0 -43 -86v-109h-51v323zM2200 1980h49l5 -5v-222q10 -51 45 -51q44 7 44 59v214l5 5h49v-216
q0 -85 -66 -112q-15 -8 -35 -8q-47 0 -82 55q-14 24 -14 57v224zM2435 1980h159v-60h-56v-268h-53v268h-55v55zM2621 1980h71q7 -4 83 -251h2l80 251h73v-328h-54v242h-2l-74 -242h-44q-4 0 -58 182l-19 60h-3v-242h-55v328zM3760 1980h52v-328h-45l-5 5v11l3 2l-3 14
q-29 -40 -78 -40q-67 0 -100 91l-5 39v3q0 94 92 125l23 3q35 0 63 -32h3v107zM2057 1928h36l4 -6v-49h-45v-221h-48v23q-23 -31 -59 -31q-89 14 -89 97v156h51v-104q0 -79 26 -86l18 -5h6q26 0 39 36l3 26v133h53v25zM3476 1928v-55h-31v-221h-47v25h-2q-15 -33 -57 -33
q-68 0 -86 78l-3 29v146h52v-120q0 -50 19 -68l21 -7h9q42 0 42 69v126h27q4 0 4 28l3 3h49zM758 1905q68 0 103 -77q9 -18 12 -54q0 -88 -90 -127l-32 -3q-63 0 -101 73q-12 22 -12 52v10q0 94 101 126h19zM1011 1905h3q74 0 83 -101v-152h-51v119q0 76 -42 76h-5
q-44 0 -44 -76v-119h-52v245h46v-21q30 29 62 29zM1466 1905h7q72 0 105 -89h-60q-16 31 -42 31h-17q-53 -14 -53 -61l-3 -15q12 -69 61 -69h9q22 0 47 27h40l2 3h3l2 -3l2 3l3 -3l2 3l2 -7q-33 -81 -110 -81q-76 0 -110 94l-4 36v3q0 85 77 120q15 8 37 8zM3141 1905h2

<glyph glyph-name=".notdef" horiz-adv-x="5040" 
d="M3351 2045h10q37 -10 37 -52q0 -12 -32 -57h-28q0 24 28 54l2 10q-5 13 -10 15h-9q-8 0 -10 -19h-30q6 49 42 49zM2019 2016l29 -31q0 -16 -40 -30h-19l-59 12l-11 -12l-28 25q11 29 43 29h11l42 -11h2q10 0 30 18zM468 1980h142v-60h-94v-75h89v-59h-89v-129l-5 -5h-49
v323zM1155 1980h43l6 -5v-78h30v-52h-30v-188l-6 -5h-49v193h-25v52h25v78zM1621 1980h42l4 -5v-94h3q23 24 54 24h2q58 0 83 -71l2 -39v-143h-52v115q0 80 -42 80h-7q-43 0 -43 -86v-109h-51v323zM2200 1980h49l5 -5v-222q10 -51 45 -51q44 7 44 59v214l5 5h49v-216
q0 -85 -66 -112q-15 -8 -35 -8q-47 0 -82 55q-14 24 -14 57v224zM2435 1980h159v-60h-56v-268h-53v268h-55v55zM2621 1980h71q7 -4 83 -251h2l80 251h73v-328h-54v242h-2l-74 -242h-44q-4 0 -58 182l-19 60h-3v-242h-55v328zM3760 1980h52v-328h-45l-5 5v11l3 2l-3 14
q-29 -40 -78 -40q-67 0 -100 91l-5 39v3q0 94 92 125l23 3q35 0 63 -32h3v107zM2057 1928h36l4 -6v-49h-45v-221h-48v23q-23 -31 -59 -31q-89 14 -89 97v156h51v-104q0 -79 26 -86l18 -5h6q26 0 39 36l3 26v133h53v25zM3476 1928v-55h-31v-221h-47v25h-2q-15 -33 -57 -33
q-68 0 -86 78l-3 29v146h52v-120q0 -50 19 -68l21 -7h9q42 0 42 69v126h27q4 0 4 28l3 3h49zM758 1905q68 0 103 -77q9 -18 12 -54q0 -88 -90 -127l-32 -3q-63 0 -101 73q-12 22 -12 52v10q0 94 101 126h19zM1011 1905h3q74 0 83 -101v-152h-51v119q0 76 -42 76h-5
q-44 0 -44 -76v-119h-52v245h46v-21q30 29 62 29zM1466 1905h7q72 0 105 -89h-60q-16 31 -42 31h-17q-53 -14 -53 -61l-3 -15q12 -69 61 -69h9q22 0 47 27h40l2 3h3l2 -3l2 3l3 -3l2 3l2 -7q-33 -81 -110 -81q-76 0 -110 94l-4 36v3q0 85 77 120q15 8 37 8zM3141 1905h2
q49 0 70 -60v-14h-52q0 16 -16 16h-4q-14 0 -19 -13v-13q0 -9 68 -35q30 -19 30 -59q0 -58 -61 -80l-23 -3q-76 12 -76 83h54q0 -20 27 -25h4q19 0 24 23q0 22 -68 44q-34 27 -34 59q0 66 74 77zM4203 1905q55 0 77 -63q7 -18 7 -65v-125h-52v112q0 83 -40 83h-11
q-33 0 -40 -54v-141h-52v5h-2l2 2v238h47v-21q25 29 64 29zM4432 1905h5q40 0 69 -40v18l-3 3l3 11h47v-208q0 -97 -85 -132l-33 -4h-7q-70 0 -104 80h59q24 -22 45 -23h13q22 0 43 22q15 13 22 52h-3q-32 -40 -73 -40q-57 0 -96 70q-10 18 -14 63q0 88 87 125zM3851 1897
h53v-136q6 -59 40 -59h7q46 0 46 93v102h51v-245h-47l-3 10h3l-3 3v5l3 2v3h-4q0 -23 -57 -31h-3q-59 0 -84 75l-2 85v93zM690 1771q10 -69 63 -69h7q59 14 59 65v15q-13 65 -59 65h-5q-58 0 -65 -76zM3630 1774q13 -72 61 -72h5q58 0 66 75q0 49 -51 70h-22q-37 0 -56 -57z
M4374 1774q8 -72 65 -72h5q59 12 59 72q0 61 -59 73h-14q-56 -16 -56 -62v-11zM3928 1620h52v-57h-52v57zM1054 1402q43 -11 43 -49v-4q0 -17 -32 -60h-28q0 25 31 57v7q0 12 -7 15h-12q-10 -4 -10 -19h-28v6q0 32 33 44zM3349 1339q92 0 138 -99h-60q-37 42 -80 42
q-55 0 -87 -68q-10 -22 -10 -47q0 -78 81 -110l18 -1q36 0 75 39h61q-44 -97 -138 -97q-93 0 -141 112q-10 31 -10 62q0 97 90 152q29 15 63 15zM3664 1339q57 0 103 -47q46 -51 46 -115v-20q0 -89 -91 -146q-33 -13 -63 -13q-89 0 -138 101q-13 33 -13 60v18q0 98 98 151
q29 11 58 11zM2261 1337h2l47 -11h3q11 0 26 11l18 -36q-18 -19 -35 -19h-3l-54 10l-20 -7l-20 36q18 16 36 16zM716 1334h19q118 0 129 -26q25 -26 25 -62q-10 -57 -30 -57v-6q47 -23 47 -66v-18q0 -63 -69 -88l-54 -5h-67v328zM2550 1334h53v-217q6 -61 45 -61q29 0 44 39
l3 30v203l4 6h45l5 -6v-171q0 -118 -40 -133q-24 -26 -64 -26q-55 0 -91 76l-4 54v206zM2805 1334h59q4 0 122 -237h4v237h50l4 -6v-322h-58q-29 48 -125 238h-3v-238h-53v328zM3101 1334h54v-328h-54v328zM3859 1334h8q155 0 174 -40q23 -11 47 -75l4 -36v-11l3 -2
q0 -94 -82 -149q-35 -15 -99 -15h-55v328zM4141 1334h153v-60h-103v-75h101v-57h-101v-74l4 -5h99v-57h-157v322zM3563 1175v-10q0 -76 79 -108l19 -1q68 0 96 86l3 20v15q0 61 -60 94q-12 8 -39 11q-66 0 -96 -83zM770 1274v-67h9q54 0 54 28l3 14q-11 25 -29 25h-37z
M3912 1274v-206l2 -3v-2q104 0 122 76l2 15v29q0 34 -32 68q-25 23 -78 23h-16zM1041 1259h5q38 0 71 -40v32h49v-245h-49v32q-36 -40 -80 -40q-75 0 -101 97l-5 36q0 89 85 125zM1314 1259h3q74 0 83 -102v-151h-51v128q0 67 -42 67h-10q-34 0 -39 -62v-133h-52v245h47v-21
q28 29 61 29zM1543 1259h5q45 0 71 -40v32h47v-219q0 -95 -104 -126h-16q-74 0 -108 82h59q26 -25 44 -25h14q52 0 64 77q-33 -42 -76 -42q-60 0 -101 81l-7 44v16q0 79 85 117zM1912 1259h2q43 0 61 -37h2q32 37 69 37h4q57 0 79 -55q8 -25 8 -45v-153h-52v138q0 44 -23 55
l-12 2h-15q-32 0 -36 -65v-130h-52v136q0 59 -43 59h-8q-32 0 -36 -57v-138h-54v245h50v-21h2q6 24 54 29zM2282 1259q47 0 75 -42v34h47v-245h-47v32q-36 -40 -78 -40q-74 0 -102 92l-6 41q0 90 85 125zM985 1117q0 -48 61 -61h4q45 0 62 46l3 15v22q-12 62 -57 62h-14
q-41 0 -59 -57v-27zM1487 1128q0 -48 43 -68l18 -4h5q47 0 63 57v23q-11 65 -58 65h-12q-50 0 -59 -73zM2225 1131v-14q15 -61 57 -61h14q58 12 58 64v11q0 45 -37 65l-18 5h-10q-64 -8 -64 -70zM770 1150v-82q0 -5 7 -5q77 0 77 45q0 34 -47 42h-37zM2966 753l24 -28
l-51 -55q-18 12 -27 26zM1524 727l85 -54q0 -15 -21 -42l-87 54q18 41 23 42zM2850 693h38l55 -60h-54l-21 26l-23 -26h-54q54 60 59 60zM3422 693h40l56 -60h-54l-24 26h-1q0 -5 -19 -26h-54zM622 685h52q8 -4 47 -137l34 -110q9 8 34 100l48 147h54v-2l-112 -326h-44z
M1159 685h51v-54h-51v54zM1354 685h46l6 -5v-323h-52v328zM2317 685h45l4 -5v-78h31v-52h-31v-193h-53v193h-26v52h26v78zM2425 685h52v-98h2q23 23 54 23h3q57 0 81 -71l3 -38v-144h-52v115q0 81 -39 81h-10q-42 0 -42 -87v-109h-52v328zM2664 685h52v-54h-52v54zM3028 685
h44l6 -5v-78h29v-52h-29v-193h-54v193h-27v52h27v78zM3234 685h52v-328h-52v328zM3957 685h52v-328h-52v328zM4316 685h51v-54h-51v54zM1555 610h5q83 0 110 -102l3 -23v-11q0 -83 -85 -120l-35 -5q-76 0 -111 97l-4 32q0 97 93 130zM1811 610h4q53 0 78 -60q7 -25 7 -81
v-112h-54v146q-7 50 -37 50h-10q-38 0 -42 -57v-139h-54v245h49v-21q26 29 59 29zM2046 610h4q45 0 63 -39h3v31h49v-206q0 -102 -89 -135l-28 -3h-5q-73 0 -106 81h52l37 -20l15 -3h14q50 0 61 72q-33 -39 -73 -39q-62 0 -98 76q-11 23 -12 60q0 85 86 123zM2866 610h2
q82 0 111 -104l2 -25l-2 -27h-172q15 -45 45 -45l14 -3q29 0 49 22h57v-3q-35 -76 -108 -76q-77 0 -111 97l-1 28v8q0 49 32 89q34 39 82 39zM3429 610h5q41 0 70 -39h2v31h47v-245h-47v31h-2q-35 -39 -77 -39q-71 0 -101 89l-5 36v14q0 86 84 120zM3711 610h7
q88 0 107 -128l-2 -1v-15q0 -65 -66 -106q-21 -11 -46 -11q-34 0 -64 32v-99l-5 -5h-49v325h49v-28q31 36 69 36zM4151 610q44 0 75 -39v31h49v-245h-49v31q-35 -39 -77 -39q-92 0 -108 132q0 84 73 121q15 8 37 8zM922 602h50v-136q3 -60 42 -60h5q44 0 44 87v109h52v-245
h-47v24h-5q0 -23 -56 -32h-3q-55 0 -82 68q-4 35 -4 99v81zM1159 602h51v-245h-51v245zM2664 602h52v-245h-52v245zM4316 602h51v-245h-51v245zM1492 488v-16q13 -66 59 -66h4q59 0 66 76q-13 71 -59 71h-11q-59 -16 -59 -65zM1987 472q15 -66 59 -66h11q48 0 59 75v1
q-13 71 -59 71h-14q-39 0 -56 -57v-24zM2805 506h122v2q-16 45 -59 45h-7q-35 0 -56 -47zM3373 474q13 -68 61 -68h5q52 0 65 63v12q-10 72 -57 72h-16q-56 -14 -56 -63zM3642 478q12 -72 61 -72h3q50 0 65 60v22q0 43 -49 65h-22q-47 0 -58 -72v-3zM4095 472q10 -66 66 -66
q43 0 61 48l2 15v16q0 54 -52 68h-18q-42 0 -59 -60v-21zM3416 321h51v-52h-51v52zM4137 321h51v-52h-51v52zM2733 133h4q35 0 43 -50v-2q0 -16 -24 -41l-10 -17h-28q0 25 28 56l3 2v2q-3 19 -9 19h-10q-8 0 -9 -19h-30q6 50 42 50zM1546 116l52 -60l-26 -19l-52 52zM352 79
h4q75 -48 85 -60l-20 -37q-88 49 -88 58zM3490 79l86 -58l-18 -39q-10 0 -91 55q15 36 23 42zM4578 76l19 -42l-91 -52l-20 39l92 58v-3zM1204 53h51v-19l5 -5h14v-36h-14l-5 -5v-279h-46v31q-34 -40 -81 -40q-72 0 -102 105l-3 26q0 102 101 131h14q33 0 66 -33v59l-6 5
h-43v36h49v24zM1480 45h40l56 -61h-53l-23 27l-23 -27h-53zM2641 45h33q12 0 63 -61h-54l-23 27q-19 -21 -19 -27h-58v4zM49 37h160v-60h-56v-268h-50l-4 5v245l2 3v2l-2 2l2 3l-2 2l2 3l-2 3h-54v54zM699 37h47v-73l2 -2l-2 -3v-3l2 -2l-2 -3v-3l2 -2v-2l-2 -3l2 -3h3
q17 24 51 24h3q53 0 77 -58q7 -17 7 -42v-153h-52v127q0 68 -40 68h-8q-43 0 -43 -86v-109h-52v322zM1297 37h47l5 -6v-49h-52v55zM1987 37h52v-198l70 115h62l-78 -118l90 -125v-2h-70q-10 22 -74 115v-115h-52v328zM2271 37v-99q24 24 53 24q57 0 80 -56q10 -19 10 -77
v-120h-54v133q0 62 -41 62h-11q-31 0 -37 -55v-140h-53v314l-1 3v3l1 2l-1 3l1 3h53zM2458 37h51v-55h-51v55zM3148 37h51v-108q27 33 68 33h3q75 0 105 -94l5 -37q0 -75 -64 -120q-30 -11 -49 -11q-41 0 -72 40v-31h-47v328zM4275 37h52v-99h2q23 24 54 24h3q60 0 82 -74
l2 -41v-138h-52v111q0 82 -32 82l-10 2h-12q-37 0 -37 -80v-115h-52v328zM329 -38h3v-58h-5q-42 0 -42 -57v-138h-53v245h47v-21q18 29 50 29zM564 -38q71 0 86 -87v-166h-51v136q-6 59 -41 59h-6q-45 0 -45 -84v-111h-52v245h50v-21q25 29 59 29zM1504 -38q72 0 105 -94
l5 -39q-2 -24 -7 -24h-169q17 -47 62 -47q24 0 48 21h57q-33 -79 -108 -79q-82 0 -113 105v37q0 81 89 117zM2657 -38h5q77 0 107 -97l3 -26v-21l-3 -13h-170q18 -47 53 -47h12q21 0 42 21h59q-34 -79 -105 -79q-84 0 -115 102l-2 29q0 93 91 128zM2915 -38h4q54 0 78 -60
q7 -25 7 -82v-111h-54v138q0 48 -35 57h-11q-38 0 -43 -57v-138h-54v245h50v-21q25 29 58 29zM3508 -38h6q40 0 70 -40h2v32h47v-245h-47v31h-2q-34 -40 -78 -40q-71 0 -101 90l-4 37v12q0 82 77 117q11 6 30 6zM3781 -38h4q62 0 82 -78l3 -84v-91h-54v138q0 48 -38 57h-9
q-38 0 -42 -52v-143h-54v245h49v-21q26 29 59 29zM4133 -38h1q74 0 104 -93l4 -40q0 -88 -84 -126l-25 -3q-41 0 -68 34v-106h-52v326h47v-29q30 37 73 37zM4714 -38h5q34 0 63 -37q27 37 69 37h6q56 0 79 -66l6 -51v-136h-52v122q0 73 -39 73h-7q-35 0 -41 -50v-140l-5 -5
h-48v140q0 42 -31 55h-17q-40 0 -40 -77v-118h-51v245h47v-21q22 29 56 29zM359 -46h49l5 -6v-234l-5 -5h-49v245zM1297 -46h52v-245h-52v245zM1649 -46h52v-136q4 -60 43 -60h4q44 0 44 81v115h52v-245h-47v24h-5q-12 -33 -59 -33q-52 0 -79 63q-5 12 -5 34v157zM2458 -46
h51v-245h-51v245zM4515 -46h51v-245h-51v245zM1077 -169q0 -53 51 -73h12q54 0 66 66v10q0 53 -54 70h-17q-38 0 -58 -57v-16zM1438 -143h122q-18 47 -53 47h-7q-43 0 -62 -44v-3zM2599 -143h122q-21 47 -54 47h-7q-46 0 -61 -47zM3196 -158v-11q10 -73 61 -73h5q64 8 64 71
v5q0 45 -38 65l-18 5h-14q-60 -14 -60 -62zM3452 -173q14 -69 62 -69h11q41 0 59 60v13q-8 73 -56 73h-17q-47 0 -59 -73v-4zM4062 -158v-22q0 -47 59 -62h9q50 0 61 76q-13 70 -58 70h-15q-56 -17 -56 -62z" />
    <glyph glyph-name=".null" horiz-adv-x="0" 
 />
    <glyph glyph-name="nonmarkingreturn" horiz-adv-x="571" 
 />
    <glyph glyph-name="space" unicode=" " horiz-adv-x="430" 
 />
    <glyph glyph-name="exclam" unicode="!" horiz-adv-x="581" 
d="M216 442l-51 355v608h250v-608l-51 -355h-148zM163 287h254v-287h-254v287z" />
    <glyph glyph-name="quotedbl" unicode="&#x22;" horiz-adv-x="792" 
d="M122 899v506h178v-506h-178zM491 899v506h178v-506h-178z" />
    <glyph glyph-name="numbersign" unicode="#" horiz-adv-x="1429" 
d="M1044 334l-16 -334h-185l17 334h-318l-18 -334h-184l16 334h-254l10 172h252l17 325h-259l11 173h256l16 319h186l-16 -319h318l16 319h186l-18 -319h246l-11 -173h-243l-17 -325h250l-10 -172h-248zM548 506h320l14 325h-317z" />
    <glyph glyph-name="dollar" unicode="$" horiz-adv-x="1036" 
d="M405 -242v226q-160 9 -303 63l45 205q79 -25 155 -38q93 -17 177 -17q124 0 163 36q33 32 33 134q0 100 -31 130q-35 34 -188 70q-225 54 -289 134q-57 71 -57 272q0 179 75 263q80 88 269 103v230h207v-230q131 -7 242 -34l-27 -215q-167 34 -334 34q-109 0 -144 -28
q-38 -31 -38 -129t28 -124q28 -24 175 -65q249 -70 312 -150q33 -41 43 -106q7 -47 7 -153q0 -184 -65 -270q-72 -94 -250 -113v-228h-205z" />
    <glyph glyph-name="percent" unicode="%" horiz-adv-x="1796" 
d="M692 -20l-158 63l551 1341l158 -63zM741 930q0 -139 -68 -209q-78 -82 -252 -82q-173 0 -251 82q-68 70 -68 209v164q0 138 68 209q78 81 251 81q174 0 252 -81q68 -71 68 -209v-164zM544 1108q0 106 -123 106q-122 0 -122 -106v-193q0 -106 122 -106q123 0 123 106v193z
M1683 270q0 -138 -68 -209q-78 -81 -251 -81q-174 0 -252 81q-68 71 -68 209v164q0 139 68 209q78 82 252 82q173 0 251 -82q68 -70 68 -209v-164zM1486 449q0 106 -122 106q-123 0 -123 -106v-193q0 -106 123 -106q122 0 122 106v193z" />
    <glyph glyph-name="ampersand" unicode="&#x26;" horiz-adv-x="1341" 
d="M1050 575v-528q-102 -34 -234 -51q-120 -16 -241 -16q-232 0 -338 92q-94 82 -94 243v115q0 210 166 270q-141 70 -141 248v107q0 159 94 239q105 90 338 90q218 0 405 -41l-22 -204q-182 32 -394 32q-170 0 -170 -127v-122q0 -136 142 -136h688v-211h-199zM691 190
q68 5 122 15v370h-232q-186 0 -186 -147v-86q0 -156 186 -156q55 0 110 4z" />
    <glyph glyph-name="quotesingle" unicode="'" horiz-adv-x="423" 
d="M122 899v506h178v-506h-178z" />
    <glyph glyph-name="parenleft" unicode="(" horiz-adv-x="686" 
d="M460 -315q-150 194 -229 415q-88 245 -88 523t88 523q79 220 229 415l185 -107q-131 -213 -187 -393q-63 -199 -63 -438q0 -240 63 -439q56 -180 187 -393z" />
    <glyph glyph-name="parenright" unicode=")" horiz-adv-x="686" 
d="M40 -209q130 213 187 393q63 199 63 439q0 239 -63 438q-57 180 -187 393l184 107q151 -195 230 -415q88 -245 88 -523t-88 -523q-80 -221 -230 -415z" />
    <glyph glyph-name="asterisk" unicode="*" horiz-adv-x="1028" 
d="M396 999h-274v121h279l-152 240l100 65l162 -249l162 249l102 -65l-155 -240h284v-121h-278l149 -231l-104 -66l-160 248l-160 -248l-104 66z" />
    <glyph glyph-name="plus" unicode="+" horiz-adv-x="1081" 
d="M122 596h315v317h205v-317h316v-197h-316v-317h-205v317h-315v197z" />
    <glyph glyph-name="comma" unicode="," horiz-adv-x="561" 
d="M153 287h254v-303l-159 -269l-115 64l115 221h-95v287z" />
    <glyph glyph-name="hyphen" unicode="-" horiz-adv-x="761" 
d="M122 678h516v-209h-516v209z" />
    <glyph glyph-name="hyphen" unicode="&#x2010;" horiz-adv-x="761" 
d="M122 678h516v-209h-516v209z" />
    <glyph glyph-name="period" unicode="." horiz-adv-x="561" 
d="M153 287h254v-287h-254v287z" />
    <glyph glyph-name="slash" unicode="/" horiz-adv-x="940" 
d="M337 -240h-225l508 1624h227z" />
    <glyph glyph-name="zero" unicode="0" horiz-adv-x="1150" 
d="M1018 346q0 -168 -96 -260q-111 -106 -347 -106q-235 0 -346 106q-96 92 -96 260v631q0 168 96 260q111 106 346 106q236 0 347 -106q96 -92 96 -260v-631zM383 371q0 -94 37 -131q42 -41 155 -41q114 0 156 41q37 37 37 131v581q0 94 -37 131q-42 41 -156 41
q-113 0 -155 -41q-37 -37 -37 -131v-581z" />
    <glyph glyph-name="one" unicode="1" horiz-adv-x="786" 
d="M124 909l-104 197l377 217h225v-1323h-250v1047z" />
    <glyph glyph-name="two" unicode="2" horiz-adv-x="1026" 
d="M108 215q23 25 53 57l22 25q12 13 21 22l68 75q59 65 154 175l116 137q46 56 67 92q40 65 40 160v35q0 129 -191 129q-135 0 -321 -41l-35 209q80 23 165 37q104 16 206 16q230 0 331 -80q95 -76 95 -241v-47q0 -143 -32 -216q-34 -76 -175 -249q-80 -98 -135 -164
l-109 -127h455v-219h-795v215z" />
    <glyph glyph-name="three" unicode="3" horiz-adv-x="1007" 
d="M129 229q150 -30 292 -30q131 0 175 31q38 29 38 112v80q0 131 -147 131h-293v223h248q168 0 168 144v79q0 125 -189 125q-132 0 -282 -28l-27 211q148 36 332 36q231 0 328 -77q88 -70 88 -224v-127q0 -182 -148 -247q172 -58 172 -248v-117q0 -163 -94 -238
q-107 -85 -360 -85q-75 0 -169 11q-102 13 -159 32z" />
    <glyph glyph-name="four" unicode="4" horiz-adv-x="1157" 
d="M921 291v-291h-246v291h-618v231l530 801h334v-819h174v-213h-174zM675 504v571l-368 -571h368z" />
    <glyph glyph-name="five" unicode="5" horiz-adv-x="1028" 
d="M163 1323h729v-217h-479v-330l184 -8q171 -9 249 -94q69 -75 69 -219v-125q0 -177 -85 -256q-102 -94 -360 -94q-183 0 -348 49l31 204q155 -34 313 -34q131 0 169 36q30 27 30 117v66q0 75 -34 105q-37 34 -142 38q-180 8 -326 10v752z" />
    <glyph glyph-name="six" unicode="6" horiz-adv-x="1077" 
d="M372 752q107 36 244 36q348 0 348 -337v-99q0 -174 -90 -266q-103 -106 -330 -106q-247 0 -343 107q-79 88 -79 284v497q0 262 143 373q131 102 422 102q130 0 236 -24l-17 -209q-89 18 -192 18q-191 0 -262 -46q-80 -53 -80 -203v-127zM372 530v-186q0 -149 172 -149
q170 0 170 149v100q0 129 -137 129q-105 0 -205 -43z" />
    <glyph glyph-name="seven" unicode="7" horiz-adv-x="942" 
d="M51 1323h829v-211l-473 -1112h-260l471 1104h-567v219z" />
    <glyph glyph-name="eight" unicode="8" horiz-adv-x="1118" 
d="M962 928q0 -81 -33 -137q-38 -65 -129 -117q110 -55 155 -121q39 -58 39 -147v-87q0 -182 -98 -260q-100 -79 -338 -79t-338 79q-98 78 -98 260v87q0 171 195 268q-162 94 -162 254v92q0 156 91 236q100 87 312 87q213 0 313 -87q91 -80 91 -236v-92zM753 379
q0 68 -32 102q-38 40 -163 88q-125 -48 -162 -88q-32 -34 -32 -102v-55q0 -138 194 -138q195 0 195 138v55zM396 928q0 -59 28 -88q31 -32 134 -72q103 40 134 72q28 29 28 88v86q0 125 -162 125t-162 -125v-86z" />
    <glyph glyph-name="nine" unicode="9" horiz-adv-x="1067" 
d="M694 571q-108 -36 -244 -36q-348 0 -348 337v99q0 181 93 272q103 100 327 100q246 0 343 -107q79 -87 79 -284v-497q0 -262 -143 -373q-132 -102 -423 -102q-130 0 -235 24l22 209q90 -18 187 -18q197 0 270 54q72 53 72 195v127zM694 793v186q0 149 -172 149
q-170 0 -170 -149v-100q0 -129 137 -129q105 0 205 43z" />
    <glyph glyph-name="colon" unicode=":" horiz-adv-x="561" 
d="M153 287h254v-287h-254v287zM153 909h254v-286h-254v286z" />
    <glyph glyph-name="semicolon" unicode=";" horiz-adv-x="561" 
d="M153 909h254v-286h-254v286zM153 287h254v-303l-159 -269l-115 64l115 221h-95v287z" />
    <glyph glyph-name="less" unicode="&#x3c;" horiz-adv-x="1200" 
d="M102 567l885 451l78 -152l-727 -366l729 -367l-80 -153l-885 452v135z" />
    <glyph glyph-name="equal" unicode="=" horiz-adv-x="1103" 
d="M143 791h817v-173h-817v173zM143 406h817v-173h-817v173z" />
    <glyph glyph-name="greater" unicode="&#x3e;" horiz-adv-x="1200" 
d="M1098 432l-885 -452l-80 153l729 367l-727 366l78 152l885 -451v-135z" />
    <glyph glyph-name="question" unicode="?" horiz-adv-x="1005" 
d="M469 446l-142 191l189 149q88 71 108 112q19 37 19 132q0 100 -40 135q-43 37 -171 37q-146 0 -293 -37l-37 215q173 45 356 45q255 0 350 -93q85 -83 85 -288q0 -158 -24 -223q-31 -83 -142 -174q-59 -47 -120 -95q-25 -19 -63 -48zM301 287h254v-287h-254v287z" />
    <glyph glyph-name="at" unicode="@" horiz-adv-x="1511" 
d="M888 872q-54 23 -110 23q-84 0 -98 -80l-35 -201q-11 -63 47 -63q76 0 149 51zM538 825q35 193 246 193q147 0 264 -70l-76 -424q38 -10 72 -10q119 0 171 94q40 74 40 211q0 181 -116 293q-125 121 -349 121q-226 0 -372 -154q-146 -155 -146 -397q0 -257 145 -401
q148 -148 422 -148q165 0 318 60l47 -138q-155 -75 -363 -75q-357 0 -553 196q-186 187 -186 506q0 304 191 502q194 200 497 200q292 0 466 -166q163 -156 163 -395q0 -89 -17 -162q-18 -82 -58 -141q-93 -137 -296 -137q-160 0 -205 96q-85 -51 -200 -51q-90 0 -126 60
q-30 50 -16 128z" />
    <glyph glyph-name="A" unicode="A" horiz-adv-x="1323" 
d="M913 283h-506l-86 -283h-270l430 1364h361l430 -1364h-271zM471 506h377l-187 645z" />
    <glyph glyph-name="B" unicode="B" horiz-adv-x="1181" 
d="M153 0v1364h537q362 0 362 -291v-141q0 -156 -151 -221q198 -43 198 -252v-146q0 -313 -373 -313h-573zM841 449q0 137 -143 137h-287v-373h264q166 0 166 133v103zM794 1040q0 111 -135 111h-248v-358h246q137 0 137 127v120z" />
    <glyph glyph-name="C" unicode="C" horiz-adv-x="1071" 
d="M122 989q0 395 485 395q194 0 371 -45l-29 -223q-188 35 -333 35q-236 0 -236 -207v-524q0 -207 236 -207q145 0 333 35l29 -223q-177 -45 -371 -45q-485 0 -485 395v614z" />
    <glyph glyph-name="D" unicode="D" horiz-adv-x="1236" 
d="M661 1364q236 0 352 -110q101 -94 101 -257v-630q0 -162 -101 -257q-116 -110 -352 -110h-508v1364h508zM411 227h223q221 0 221 201v508q0 201 -221 201h-223v-910z" />
    <glyph glyph-name="E" unicode="E" horiz-adv-x="1101" 
d="M153 1364h836v-227h-578v-330h533v-227h-533v-353h578v-227h-836v1364z" />
    <glyph glyph-name="F" unicode="F" horiz-adv-x="1069" 
d="M153 0v1364h844v-227h-586v-363h541v-227h-541v-547h-258z" />
    <glyph glyph-name="G" unicode="G" horiz-adv-x="1196" 
d="M380 422q0 -211 238 -211q99 0 211 16v414h243v-600q-215 -61 -456 -61q-494 0 -494 411v582q0 411 518 411q93 0 191 -10q115 -12 200 -35l-28 -225q-173 37 -383 37q-240 0 -240 -213v-516z" />
    <glyph glyph-name="H" unicode="H" horiz-adv-x="1329" 
d="M917 0v575h-506v-575h-258v1364h258v-561h506v561h258v-1364h-258z" />
    <glyph glyph-name="I" unicode="I" horiz-adv-x="585" 
d="M421 0h-258v1364h258v-1364z" />
    <glyph glyph-name="J" unicode="J" horiz-adv-x="555" 
d="M412 1364v-1387q0 -103 -56 -182q-52 -71 -222 -217l-154 174q125 120 145 148q29 39 29 100v1364h258z" />
    <glyph glyph-name="K" unicode="K" horiz-adv-x="1253" 
d="M411 0h-258v1364h258v-1364zM733 690l458 -690h-297l-446 690l422 674h293z" />
    <glyph glyph-name="L" unicode="L" horiz-adv-x="1034" 
d="M411 227h561v-227h-819v1364h258v-1137z" />
    <glyph glyph-name="M" unicode="M" horiz-adv-x="1671" 
d="M999 176h-327l-252 707l-23 -883h-264l61 1364h289l352 -969l353 969h288l62 -1364h-264l-23 883z" />
    <glyph glyph-name="N" unicode="N" horiz-adv-x="1421" 
d="M405 1034v-1034h-252v1364h344l518 -1036v1036h252v-1364h-344z" />
    <glyph glyph-name="O" unicode="O" 
d="M1154 399q0 -187 -113 -295q-132 -124 -403 -124t-402 124q-114 108 -114 295v566q0 187 114 295q131 124 402 124t403 -124q113 -108 113 -295v-566zM380 414q0 -207 258 -207t258 207v536q0 207 -258 207t-258 -207v-536z" />
    <glyph glyph-name="P" unicode="P" horiz-adv-x="1179" 
d="M153 1364h532q231 0 335 -94q98 -89 98 -275v-186q0 -367 -445 -367h-262v-442h-258v1364zM860 975q0 162 -189 162h-260v-467h260q189 0 189 166v139z" />
    <glyph glyph-name="Q" unicode="Q" 
d="M558 -16q-228 15 -339 137q-97 105 -97 278v566q0 187 114 295q131 124 402 124t403 -124q113 -108 113 -295v-566q0 -150 -74 -250q-84 -113 -256 -151l109 -256l-231 -96zM380 414q0 -207 258 -207t258 207v536q0 207 -258 207t-258 -207v-536z" />
    <glyph glyph-name="R" unicode="R" horiz-adv-x="1331" 
d="M970 0l-313 451h-246v-451h-258v1364h559q232 0 336 -94q98 -89 98 -275v-178q0 -256 -205 -330l338 -487h-309zM888 975q0 162 -186 162h-291v-463h291q186 0 186 166v135z" />
    <glyph glyph-name="S" unicode="S" horiz-adv-x="1105" 
d="M915 78q-105 -98 -391 -98q-254 0 -426 81l45 203q101 -31 189 -46q99 -17 196 -17q136 0 179 36q38 32 38 134q0 115 -33 145q-35 33 -217 72q-244 54 -311 132q-63 74 -63 294q0 192 99 278q107 92 359 92q199 0 398 -45l-29 -217q-188 41 -365 41q-127 0 -167 -33
q-37 -30 -37 -122q0 -117 31 -146q32 -28 208 -71q265 -64 330 -141q55 -66 55 -279q0 -209 -88 -293z" />
    <glyph glyph-name="T" unicode="T" horiz-adv-x="1122" 
d="M432 1137h-381v227h1020v-227h-381v-1137h-258v1137z" />
    <glyph glyph-name="U" unicode="U" horiz-adv-x="1294" 
d="M1151 1364v-969q0 -181 -109 -288q-129 -127 -395 -127q-267 0 -396 127q-108 107 -108 288v969h258v-948q0 -209 246 -209t246 209v948h258z" />
    <glyph glyph-name="V" unicode="V" horiz-adv-x="1228" 
d="M944 1364h268l-408 -1364h-380l-408 1364h268l330 -1137z" />
    <glyph glyph-name="W" unicode="W" horiz-adv-x="1933" 
d="M1386 307l260 1057h256l-338 -1364h-348l-250 1098l-250 -1098h-348l-338 1364h256l260 -1057l248 1057h344z" />
    <glyph glyph-name="X" unicode="X" horiz-adv-x="1253" 
d="M1202 0h-279l-297 483l-296 -483h-279l428 686l-412 678h277l282 -475l283 475h277l-412 -678z" />
    <glyph glyph-name="Y" unicode="Y" horiz-adv-x="1159" 
d="M874 1364h275l-441 -969v-395h-258v395l-440 969h274l295 -688z" />
    <glyph glyph-name="Z" unicode="Z" horiz-adv-x="1177" 
d="M422 219h633v-219h-922v217l631 928h-606v219h890v-219z" />
    <glyph glyph-name="bracketleft" unicode="[" horiz-adv-x="671" 
d="M174 -258v1876h436v-205h-186v-1466h186v-205h-436z" />
    <glyph glyph-name="backslash" unicode="\" horiz-adv-x="940" 
d="M92 1384h227l508 -1624h-225z" />
    <glyph glyph-name="bracketright" unicode="]" horiz-adv-x="671" 
d="M61 -258v205h186v1466h-186v205h436v-1876h-436z" />
    <glyph glyph-name="asciicircum" unicode="^" horiz-adv-x="972" 
d="M92 852l305 553h174l309 -553l-155 -92l-240 436l-241 -436z" />
    <glyph glyph-name="underscore" unicode="_" horiz-adv-x="899" 
d="M-2 -152v132h903v-132h-903z" />
    <glyph glyph-name="grave" unicode="`" horiz-adv-x="643" 
d="M427 1104q-75 42 -149 88q-63 39 -156 100l98 152q72 -54 152 -107q68 -45 147 -94z" />
    <glyph glyph-name="a" unicode="a" horiz-adv-x="1005" 
d="M882 0h-205l-18 68q-134 -88 -297 -88q-131 0 -198 83q-62 78 -62 213q0 281 291 281h239v105q0 86 -35 116q-39 33 -155 33q-130 0 -277 -31l-30 191q155 47 342 47q229 0 320 -87q85 -80 85 -274v-657zM632 377h-184q-104 0 -104 -98q0 -101 100 -101q98 0 188 51v148z
" />
    <glyph glyph-name="b" unicode="b" horiz-adv-x="1081" 
d="M989 383q0 -202 -85 -292q-105 -111 -374 -111q-84 0 -184 8q-116 9 -203 26v1391l250 35v-482q61 26 134 42q84 18 161 18q301 0 301 -342v-293zM393 201q60 -8 149 -8q116 0 160 47q37 40 37 135v307q0 123 -127 123q-49 0 -113 -18q-55 -15 -106 -39v-547z" />
    <glyph glyph-name="c" unicode="c" horiz-adv-x="858" 
d="M196 70q-98 89 -98 292v273q0 203 98 292q99 91 332 91q133 0 244 -37l-31 -205q-98 27 -207 27q-186 0 -186 -166v-277q0 -165 186 -165q104 0 207 26l31 -205q-107 -36 -244 -36q-233 0 -332 90z" />
    <glyph glyph-name="d" unicode="d" horiz-adv-x="1091" 
d="M102 666q0 352 330 352q130 0 266 -29v416l250 35v-1440h-199l-24 84q-145 -104 -316 -104q-307 0 -307 346v340zM698 778q-122 27 -221 27q-125 0 -125 -133v-353q0 -126 123 -126q125 0 223 90v495z" />
    <glyph glyph-name="e" unicode="e" horiz-adv-x="985" 
d="M348 352q0 -168 194 -168q150 0 306 47l38 -188q-166 -63 -366 -63q-226 0 -329 102q-93 94 -93 283v264q0 176 87 273q103 116 327 116q221 0 315 -120q76 -96 76 -282v-213h-555v-51zM348 604h317v49q0 160 -151 160q-166 0 -166 -160v-49z" />
    <glyph glyph-name="f" unicode="f" horiz-adv-x="743" 
d="M717 1225q-76 16 -144 16q-112 0 -112 -119v-125h254l-15 -198h-239v-799h-250v799h-160v198h160v140q0 309 317 309q113 0 215 -29z" />
    <glyph glyph-name="g" unicode="g" horiz-adv-x="1001" 
d="M425 268q-59 -37 -59 -80q0 -37 55 -43l289 -30q213 -25 213 -242q0 -167 -86 -228q-95 -69 -365 -69q-92 0 -193 13q-112 14 -192 38l31 187q172 -43 336 -43q148 0 193 15q44 15 44 64q0 70 -94 80l-289 33q-196 23 -196 191q0 55 34 102q25 35 70 68q-135 81 -135 268
v94q3 162 94 244q99 88 307 88q88 0 170 -21h308v-125l-111 -30q35 -67 35 -156v-94q0 -326 -402 -326q-39 0 -57 2zM650 678q0 139 -168 139q-165 0 -165 -139v-76q0 -135 165 -135q168 0 168 135v76z" />
    <glyph glyph-name="h" unicode="h" horiz-adv-x="1116" 
d="M733 0v696q0 80 -80 80q-100 0 -260 -84v-692h-250v1405l250 35v-518q185 96 364 96q226 0 226 -295v-723h-250z" />
    <glyph glyph-name="i" unicode="i" horiz-adv-x="536" 
d="M143 0v997h250v-997h-250zM143 1139v288h250v-288h-250z" />
    <glyph glyph-name="j" unicode="j" horiz-adv-x="522" 
d="M390 997v-1050q0 -94 -50 -164q-47 -67 -211 -207l-145 160q112 104 132 133q24 36 24 111v1017h250zM140 1139v288h250v-288h-250z" />
    <glyph glyph-name="k" unicode="k" horiz-adv-x="1040" 
d="M143 0v1405l250 35v-1440h-250zM991 997l-293 -493l305 -504h-274l-301 504l284 493h279z" />
    <glyph glyph-name="l" unicode="l" horiz-adv-x="536" 
d="M143 0v1405l250 35v-1440h-250z" />
    <glyph glyph-name="m" unicode="m" horiz-adv-x="1705" 
d="M733 0v696q0 80 -80 80q-100 0 -260 -84v-692h-250v997h190l25 -84q212 105 399 105q137 0 189 -107q209 107 401 107q226 0 226 -295v-723h-250v696q0 80 -80 80q-115 0 -260 -84v-692h-250z" />
    <glyph glyph-name="n" unicode="n" horiz-adv-x="1116" 
d="M733 0v696q0 80 -80 80q-100 0 -260 -84v-692h-250v997h190l25 -84q212 105 399 105q226 0 226 -295v-723h-250z" />
    <glyph glyph-name="o" unicode="o" horiz-adv-x="1064" 
d="M966 373q0 -176 -88 -274q-109 -119 -346 -119t-345 119q-89 98 -89 274v252q0 175 89 273q108 120 345 120t346 -120q88 -98 88 -273v-252zM716 633q0 172 -184 172t-184 -172v-268q0 -172 184 -172t184 172v268z" />
    <glyph glyph-name="p" unicode="p" horiz-adv-x="1091" 
d="M989 332q0 -352 -330 -352q-130 0 -266 28v-411l-250 -35v1435h199l24 -84q145 105 316 105q307 0 307 -346v-340zM393 219q122 -26 221 -26q125 0 125 133v352q0 127 -123 127q-126 0 -223 -90v-496z" />
    <glyph glyph-name="q" unicode="q" horiz-adv-x="1081" 
d="M102 614q0 203 85 293q105 111 374 111q84 0 184 -8q116 -10 203 -27v-1386l-250 -35v477q-61 -25 -134 -41q-85 -18 -161 -18q-301 0 -301 342v292zM698 797q-60 8 -150 8q-115 0 -159 -47q-37 -40 -37 -135v-308q0 -122 127 -122q48 0 112 17q56 16 107 40v547z" />
    <glyph glyph-name="r" unicode="r" horiz-adv-x="681" 
d="M657 788q-120 -53 -264 -145v-643h-250v997h211l16 -110q54 36 119 70q85 44 143 61z" />
    <glyph glyph-name="s" unicode="s" horiz-adv-x="915" 
d="M745 63q-81 -83 -293 -83q-183 0 -344 57l35 190q147 -43 297 -43q80 0 105 22q22 19 22 79q0 51 -27 74q-34 29 -147 57q-177 43 -228 106q-45 56 -45 207q0 155 80 220q84 69 293 69q166 0 299 -35l-25 -199q-151 29 -274 29q-127 0 -127 -86q0 -60 20 -77
q20 -18 121 -44q207 -54 257 -108q49 -51 49 -207q0 -159 -68 -228z" />
    <glyph glyph-name="t" unicode="t" horiz-adv-x="727" 
d="M673 18q-92 -38 -219 -38q-274 0 -274 264v555h-150v198h150v248l249 35v-283h256l-16 -198h-240v-523q0 -88 90 -88q54 0 125 21z" />
    <glyph glyph-name="u" unicode="u" horiz-adv-x="1116" 
d="M383 997v-696q0 -80 80 -80q99 0 260 84v692h250v-997h-191l-24 84q-213 -104 -400 -104q-225 0 -225 294v723h250z" />
    <glyph glyph-name="v" unicode="v" horiz-adv-x="989" 
d="M659 0h-330l-319 997h256l227 -757l230 757h256z" />
    <glyph glyph-name="w" unicode="w" horiz-adv-x="1441" 
d="M220 0l-184 997h233l123 -667l199 667h260l197 -667l123 667h233l-184 -997h-289l-211 717l-211 -717h-289z" />
    <glyph glyph-name="x" unicode="x" horiz-adv-x="958" 
d="M24 0l322 502l-316 495h250l199 -303l196 303h250l-315 -495l323 -502h-256l-198 309l-201 -309h-254z" />
    <glyph glyph-name="y" unicode="y" horiz-adv-x="978" 
d="M659 0l-133 -403h-237l124 403h-88l-315 997h256l227 -757l230 757h256z" />
    <glyph glyph-name="z" unicode="z" horiz-adv-x="942" 
d="M118 997h727v-192l-444 -612h459v-193h-748v193l444 612h-438v192z" />
    <glyph glyph-name="braceleft" unicode="{" horiz-adv-x="696" 
d="M92 567v193h41q86 0 86 82v475q0 301 266 301h170v-201h-104q-82 0 -82 -84v-434q0 -107 -32 -161q-40 -69 -136 -74q96 -6 136 -74q32 -55 32 -162v-434q0 -84 82 -84h104v-201h-170q-266 0 -266 301v475q0 82 -86 82h-41z" />
    <glyph glyph-name="bar" unicode="|" horiz-adv-x="522" 
d="M338 -430h-154v2048h154v-2048z" />
    <glyph glyph-name="braceright" unicode="}" horiz-adv-x="696" 
d="M562 567q-86 0 -86 -82v-475q0 -301 -266 -301h-170v201h104q82 0 82 84v434q0 107 32 162q40 68 136 74q-96 5 -136 74q-32 54 -32 161v434q0 84 -82 84h-104v201h170q266 0 266 -301v-475q0 -82 86 -82h41v-193h-41z" />
    <glyph glyph-name="asciitilde" unicode="~" horiz-adv-x="987" 
d="M925 647q-39 -116 -95 -176q-72 -76 -181 -76q-43 0 -90 21q-33 15 -80 47l-37 25q-21 13 -35 21q-37 21 -62 21q-51 0 -81 -39l-32 -56q-1 -4 -6 -14l-14 -28l-141 78q27 70 44 104q23 50 49 80q59 68 167 68q38 0 84 -21l62 -35l98 -60q42 -21 74 -21q53 0 89 46
q23 30 46 93z" />
    <glyph glyph-name="dieresis" unicode="&#xa8;" horiz-adv-x="1024" 
 />
    <glyph glyph-name="copyright" unicode="&#xa9;" horiz-adv-x="1568" 
d="M716 608q0 -94 100 -94q86 0 160 16l27 -180q-81 -22 -187 -22q-315 0 -315 262v192q0 260 315 260q109 0 187 -22l-27 -180q-77 18 -160 18q-100 0 -100 -92v-158zM273 1180q199 206 510 206q312 0 511 -206q192 -200 192 -498q0 -297 -192 -496q-199 -206 -511 -206
q-311 0 -510 206q-192 199 -192 496q0 298 192 498zM417 319q141 -147 366 -147q226 0 367 147q137 144 137 363q0 220 -137 364q-141 148 -367 148q-225 0 -366 -148q-137 -144 -137 -364q0 -219 137 -363z" />
    <glyph glyph-name="registered" unicode="&#xae;" horiz-adv-x="923" 
d="M193 1318q103 107 268 107t269 -107q101 -105 101 -263q0 -159 -101 -264q-104 -109 -269 -109t-268 109q-101 105 -101 264q0 158 101 263zM273 873q66 -76 188 -76q121 0 188 76q61 70 61 182q0 111 -61 180q-67 76 -188 76q-122 0 -188 -76q-60 -69 -60 -180
q0 -112 60 -182zM459 1004h-41v-111h-82v340h141q113 0 113 -98v-33q0 -62 -45 -84l86 -125h-95zM510 1126q0 31 -39 31h-53v-80h53q39 0 39 33v16z" />
    <glyph glyph-name="acute" unicode="&#xb4;" horiz-adv-x="1024" 
 />
    <glyph glyph-name="paragraph" unicode="&#xb6;" horiz-adv-x="1024" 
d="M929 1435v-70h-127v-1365h-82v1365h-166v-1365h-84v738q-174 8 -275.5 102.5t-101.5 245.5q0 157 107.5 253t285.5 96h443z" />
    <glyph glyph-name="onequarter" unicode="&#xbc;" horiz-adv-x="1757" 
d="M1513 166v-166h-178v166h-375v135l299 528h254v-518h121v-145h-121zM1335 311v361l-191 -361h191zM598 -82l-144 62l613 1425l141 -62zM102 1171l276 152h148v-829h-186v616l-170 -84z" />
    <glyph glyph-name="onehalf" unicode="&#xbd;" horiz-adv-x="1810" 
d="M1208 1343l-610 -1425l-144 62l613 1425zM170 1026l-68 145l276 152h148v-829h-186v616zM1118 141l84 91l110 120q94 103 118 142q15 27 15 67v37q0 78 -94 78q-96 0 -215 -31l-33 160q120 41 267 41q262 0 262 -223v-35q0 -73 -12 -110q-20 -58 -86 -136l-160 -182h272
v-160h-528v141z" />
    <glyph glyph-name="threequarters" unicode="&#xbe;" horiz-adv-x="1824" 
d="M167 651q110 -16 230 -16q90 0 90 74v63q0 72 -82 72h-203v141h193q77 0 77 68v63q0 76 -108 76q-84 0 -184 -14l-17 141q107 24 209 24q281 0 281 -206v-62q0 -108 -92 -155q106 -36 106 -164v-54q0 -111 -56 -162q-65 -59 -225 -59q-140 0 -233 29zM1580 166v-166h-178
v166h-375v135l300 528h253v-518h121v-145h-121zM1402 311v361l-190 -361h190zM665 -82l-143 62l612 1425l141 -62z" />
    <glyph glyph-name="Agrave" unicode="&#xc0;" horiz-adv-x="1323" 
d="M913 283h-506l-86 -283h-270l430 1364h361l430 -1364h-271zM471 506h377l-187 645zM688 1452q-167 88 -279 170l99 152q54 -43 129 -93l141 -90z" />
    <glyph glyph-name="Aacute" unicode="&#xc1;" horiz-adv-x="1323" 
d="M913 283h-506l-86 -283h-270l430 1364h361l430 -1364h-271zM471 506h377l-187 645zM561 1591q88 55 142 90q75 49 130 93l97 -152q-119 -87 -279 -170z" />
    <glyph glyph-name="uni1EA2" unicode="&#x1ea2;" horiz-adv-x="1323" 
d="M913 283h-506l-86 -283h-270l430 1364h361l430 -1364h-271zM471 506h377l-187 645zM555 1549q86 64 103 85q14 16 14 46q0 50 -69 50q-26 0 -60 -4q-28 -4 -73 -12l-20 125q94 19 166 19q111 0 158 -46q40 -40 40 -125q0 -81 -26 -117q-26 -37 -153 -130z" />
    <glyph glyph-name="Atilde" unicode="&#xc3;" horiz-adv-x="1323" 
d="M913 283h-506l-86 -283h-270l430 1364h361l430 -1364h-271zM471 506h377l-187 645zM547 1556q-31 0 -60 -28q-11 -10 -24 -27l-21 -28l-102 83q37 70 86 112q56 48 117 48q58 0 129 -41q77 -45 106 -45q57 0 84 76l119 -61q-56 -172 -203 -172q-70 0 -131 40
q-68 43 -100 43z" />
    <glyph glyph-name="uni1EA0" unicode="&#x1ea0;" horiz-adv-x="1323" 
d="M913 283h-506l-86 -283h-270l430 1364h361l430 -1364h-271zM471 506h377l-187 645zM557 -101h209v-199h-209v199z" />
    <glyph glyph-name="Acircumflex" unicode="&#xc2;" horiz-adv-x="1323" 
d="M913 283h-506l-86 -283h-270l430 1364h361l430 -1364h-271zM471 506h377l-187 645zM401 1567q133 89 260 186q77 -58 128 -95q63 -45 132 -91l-69 -115q-92 43 -191 100q-97 -56 -188 -100z" />
    <glyph glyph-name="uni1EA6" unicode="&#x1ea6;" horiz-adv-x="1323" 
d="M913 283h-506l-86 -283h-270l430 1364h361l430 -1364h-271zM471 506h377l-187 645zM809 1702q-167 88 -279 170l99 152q54 -43 129 -93l141 -90zM401 1567q133 89 260 186q77 -58 128 -95q63 -45 132 -91l-69 -115q-92 43 -191 100q-97 -56 -188 -100z" />
    <glyph glyph-name="uni1EA4" unicode="&#x1ea4;" horiz-adv-x="1323" 
d="M913 283h-506l-86 -283h-270l430 1364h361l430 -1364h-271zM471 506h377l-187 645zM441 1852q88 55 142 90q75 49 130 93l97 -152q-119 -87 -279 -170zM401 1567q133 89 260 186q77 -58 128 -95q63 -45 132 -91l-69 -115q-92 43 -191 100q-97 -56 -188 -100z" />
    <glyph glyph-name="uni1EA8" unicode="&#x1ea8;" horiz-adv-x="1323" 
d="M913 283h-506l-86 -283h-270l430 1364h361l430 -1364h-271zM471 506h377l-187 645zM772 1758q86 64 103 85q14 16 14 46q0 50 -69 50q-26 0 -60 -4q-28 -4 -73 -12l-20 125q94 19 166 19q111 0 158 -46q40 -40 40 -125q0 -81 -26 -117q-26 -37 -153 -130zM401 1567
q133 89 260 186q77 -58 128 -95q63 -45 132 -91l-69 -115q-92 43 -191 100q-97 -56 -188 -100z" />
    <glyph glyph-name="uni1EAA" unicode="&#x1eaa;" horiz-adv-x="1323" 
d="M913 283h-506l-86 -283h-270l430 1364h361l430 -1364h-271zM471 506h377l-187 645zM627 1816q-31 0 -60 -28q-11 -10 -24 -27l-21 -28l-102 83q37 70 86 112q56 48 117 48q58 0 129 -41q77 -45 106 -45q57 0 84 76l119 -61q-56 -172 -203 -172q-70 0 -131 40
q-68 43 -100 43zM401 1567q133 89 260 186q77 -58 128 -95q63 -45 132 -91l-69 -115q-92 43 -191 100q-97 -56 -188 -100z" />
    <glyph glyph-name="uni1EAC" unicode="&#x1eac;" horiz-adv-x="1323" 
d="M913 283h-506l-86 -283h-270l430 1364h361l430 -1364h-271zM471 506h377l-187 645zM557 -101h209v-199h-209v199zM401 1567q133 89 260 186q77 -58 128 -95q63 -45 132 -91l-69 -115q-92 43 -191 100q-97 -56 -188 -100z" />
    <glyph glyph-name="Abreve" unicode="&#x102;" horiz-adv-x="1323" 
d="M913 283h-506l-86 -283h-270l430 1364h361l430 -1364h-271zM471 506h377l-187 645zM944 1667q-23 -88 -92 -142q-77 -61 -191 -61q-113 0 -190 61q-69 54 -92 142l121 66q44 -129 161 -129t164 129z" />
    <glyph glyph-name="uni1EB0" unicode="&#x1eb0;" horiz-adv-x="1323" 
d="M913 283h-506l-86 -283h-270l430 1364h361l430 -1364h-271zM471 506h377l-187 645zM705 1702q-167 88 -279 170l99 152q54 -43 129 -93l141 -90zM944 1667q-23 -88 -92 -142q-77 -61 -190 -61q-114 0 -191 61q-69 54 -92 142l121 66q44 -129 162 -129q116 0 163 129z" />
    <glyph glyph-name="uni1EAE" unicode="&#x1eae;" horiz-adv-x="1323" 
d="M913 283h-506l-86 -283h-270l430 1364h361l430 -1364h-271zM471 506h377l-187 645zM537 1852q88 55 142 90q75 49 130 93l97 -152q-119 -87 -279 -170zM944 1667q-23 -88 -92 -142q-77 -61 -190 -61q-114 0 -191 61q-69 54 -92 142l121 66q44 -129 162 -129
q116 0 163 129z" />
    <glyph glyph-name="uni1EB2" unicode="&#x1eb2;" horiz-adv-x="1323" 
d="M913 283h-506l-86 -283h-270l430 1364h361l430 -1364h-271zM471 506h377l-187 645zM589 1758q86 64 103 85q14 16 14 46q0 50 -69 50q-26 0 -60 -4q-28 -4 -73 -12l-20 125q94 19 166 19q111 0 158 -46q40 -40 40 -125q0 -81 -26 -117q-26 -37 -153 -130zM944 1667
q-23 -88 -92 -142q-77 -61 -190 -61q-114 0 -191 61q-69 54 -92 142l121 66q44 -129 162 -129q116 0 163 129z" />
    <glyph glyph-name="uni1EB4" unicode="&#x1eb4;" horiz-adv-x="1323" 
d="M913 283h-506l-86 -283h-270l430 1364h361l430 -1364h-271zM471 506h377l-187 645zM627 1816q-31 0 -60 -28q-11 -10 -24 -27l-21 -28l-102 83q37 70 86 112q56 48 117 48q58 0 129 -41q77 -45 106 -45q57 0 84 76l119 -61q-56 -172 -203 -172q-70 0 -131 40
q-68 43 -100 43zM944 1667q-23 -88 -92 -142q-77 -61 -190 -61q-114 0 -191 61q-69 54 -92 142l121 66q44 -129 162 -129q116 0 163 129z" />
    <glyph glyph-name="uni1EB6" unicode="&#x1eb6;" horiz-adv-x="1323" 
d="M913 283h-506l-86 -283h-270l430 1364h361l430 -1364h-271zM471 506h377l-187 645zM557 -101h209v-199h-209v199zM944 1667q-23 -88 -92 -142q-77 -61 -190 -61q-114 0 -191 61q-69 54 -92 142l121 66q44 -129 162 -129q116 0 163 129z" />
    <glyph glyph-name="Egrave" unicode="&#xc8;" horiz-adv-x="1101" 
d="M153 1364h836v-227h-578v-330h533v-227h-533v-353h578v-227h-836v1364zM612 1452q-167 88 -279 170l99 152q54 -43 129 -93l141 -90z" />
    <glyph glyph-name="Eacute" unicode="&#xc9;" horiz-adv-x="1101" 
d="M153 1364h836v-227h-578v-330h533v-227h-533v-353h578v-227h-836v1364zM438 1591q88 55 141 90q75 49 131 93l96 -152q-119 -87 -278 -170z" />
    <glyph glyph-name="uni1EBA" unicode="&#x1eba;" horiz-adv-x="1101" 
d="M153 1364h836v-227h-578v-330h533v-227h-533v-353h578v-227h-836v1364zM502 1549q87 64 104 85q14 16 14 46q0 50 -70 50q-26 0 -59 -4q-29 -4 -73 -12l-20 125q93 19 166 19q111 0 157 -46q40 -40 40 -125q0 -81 -26 -117q-25 -37 -152 -130z" />
    <glyph glyph-name="uni1EBC" unicode="&#x1ebc;" horiz-adv-x="1101" 
d="M153 1364h836v-227h-578v-330h533v-227h-533v-353h578v-227h-836v1364zM467 1556q-31 0 -60 -28q-11 -10 -24 -27l-20 -28l-103 83q38 70 86 112q57 48 117 48q59 0 129 -41q77 -45 106 -45q57 0 84 76l119 -61q-56 -172 -203 -172q-69 0 -131 40q-68 43 -100 43z" />
    <glyph glyph-name="uni1EB8" unicode="&#x1eb8;" horiz-adv-x="1101" 
d="M153 1364h836v-227h-578v-330h533v-227h-533v-353h578v-227h-836v1364zM466 -101h209v-199h-209v199z" />
    <glyph glyph-name="Ecircumflex" unicode="&#xca;" horiz-adv-x="1101" 
d="M153 1364h836v-227h-578v-330h533v-227h-533v-353h578v-227h-836v1364zM323 1567q133 89 260 186q77 -58 128 -95q63 -45 132 -91l-69 -115q-93 43 -191 100q-97 -56 -188 -100z" />
    <glyph glyph-name="uni1EC0" unicode="&#x1ec0;" horiz-adv-x="1101" 
d="M153 1364h836v-227h-578v-330h533v-227h-533v-353h578v-227h-836v1364zM769 1688q-167 88 -279 170l99 152q54 -43 129 -93l141 -90zM323 1567q133 89 260 186q77 -58 128 -95q63 -45 132 -91l-69 -115q-93 43 -191 100q-97 -56 -188 -100z" />
    <glyph glyph-name="uni1EBE" unicode="&#x1ebe;" horiz-adv-x="1101" 
d="M153 1364h836v-227h-578v-330h533v-227h-533v-353h578v-227h-836v1364zM351 1854q88 55 141 90q75 49 131 93l96 -152q-119 -87 -278 -170zM323 1567q133 89 260 186q77 -58 128 -95q63 -45 132 -91l-69 -115q-93 43 -191 100q-97 -56 -188 -100z" />
    <glyph glyph-name="uni1EC2" unicode="&#x1ec2;" horiz-adv-x="1101" 
d="M153 1364h836v-227h-578v-330h533v-227h-533v-353h578v-227h-836v1364zM702 1776q87 64 104 85q14 16 14 46q0 50 -70 50q-26 0 -59 -4q-29 -4 -73 -12l-20 125q93 19 166 19q111 0 157 -46q40 -40 40 -125q0 -81 -26 -117q-25 -37 -152 -130zM323 1567q133 89 260 186
q77 -58 128 -95q63 -45 132 -91l-69 -115q-93 43 -191 100q-97 -56 -188 -100z" />
    <glyph glyph-name="uni1EC4" unicode="&#x1ec4;" horiz-adv-x="1101" 
d="M153 1364h836v-227h-578v-330h533v-227h-533v-353h578v-227h-836v1364zM546 1810q-31 0 -60 -28q-11 -10 -24 -27l-20 -28l-103 83q38 70 86 112q57 48 117 48q59 0 129 -41q77 -45 106 -45q57 0 84 76l119 -61q-56 -172 -203 -172q-69 0 -131 40q-68 43 -100 43z
M323 1567q133 89 260 186q77 -58 128 -95q63 -45 132 -91l-69 -115q-93 43 -191 100q-97 -56 -188 -100z" />
    <glyph glyph-name="uni1EC6" unicode="&#x1ec6;" horiz-adv-x="1101" 
d="M153 1364h836v-227h-578v-330h533v-227h-533v-353h578v-227h-836v1364zM466 -101h209v-199h-209v199zM323 1567q133 89 260 186q77 -58 128 -95q63 -45 132 -91l-69 -115q-93 43 -191 100q-97 -56 -188 -100z" />
    <glyph glyph-name="Igrave" unicode="&#xcc;" horiz-adv-x="585" 
d="M421 0h-258v1364h258v-1364zM305 1452q-168 88 -279 170l98 152q54 -43 129 -93l142 -90z" />
    <glyph glyph-name="Iacute" unicode="&#xcd;" horiz-adv-x="585" 
d="M421 0h-258v1364h258v-1364zM190 1591q88 55 141 90q75 49 131 93l96 -152q-119 -87 -278 -170z" />
    <glyph glyph-name="uni1EC8" unicode="&#x1ec8;" horiz-adv-x="585" 
d="M421 0h-258v1364h258v-1364zM222 1567q86 64 103 85q14 16 14 46q0 50 -70 50q-26 0 -59 -4q-28 -4 -73 -12l-20 125q94 19 166 19q111 0 157 -46q41 -40 41 -125q0 -81 -26 -117q-26 -37 -153 -130z" />
    <glyph glyph-name="Itilde" unicode="&#x128;" horiz-adv-x="585" 
d="M421 0h-258v1364h258v-1364zM180 1556q-31 0 -60 -28q-11 -10 -24 -27l-21 -28l-102 83q37 70 86 112q56 48 117 48q59 0 129 -41q77 -45 106 -45q57 0 84 76l119 -61q-56 -172 -203 -172q-69 0 -131 40q-68 43 -100 43z" />
    <glyph glyph-name="uni1ECA" unicode="&#x1eca;" horiz-adv-x="585" 
d="M421 0h-258v1364h258v-1364zM188 -101h208v-199h-208v199z" />
    <glyph glyph-name="Ograve" unicode="&#xd2;" 
d="M1154 399q0 -187 -113 -295q-132 -124 -403 -124t-402 124q-114 108 -114 295v566q0 187 114 295q131 124 402 124t403 -124q113 -108 113 -295v-566zM380 414q0 -207 258 -207t258 207v536q0 207 -258 207t-258 -207v-536zM638 1452q-167 88 -278 170l98 152
q54 -43 129 -93l141 -90z" />
    <glyph glyph-name="Oacute" unicode="&#xd3;" 
d="M1154 399q0 -187 -113 -295q-132 -124 -403 -124t-402 124q-114 108 -114 295v566q0 187 114 295q131 124 402 124t403 -124q113 -108 113 -295v-566zM380 414q0 -207 258 -207t258 207v536q0 207 -258 207t-258 -207v-536zM511 1591q88 55 142 90q75 49 131 93l96 -152
q-119 -87 -279 -170z" />
    <glyph glyph-name="uni1ECE" unicode="&#x1ece;" 
d="M1154 399q0 -187 -113 -295q-132 -124 -403 -124t-402 124q-114 108 -114 295v566q0 187 114 295q131 124 402 124t403 -124q113 -108 113 -295v-566zM380 414q0 -207 258 -207t258 207v536q0 207 -258 207t-258 -207v-536zM554 1549q86 64 103 85q14 16 14 46
q0 50 -69 50q-26 0 -60 -4q-28 -4 -73 -12l-20 125q94 19 166 19q112 0 158 -46q40 -40 40 -125q0 -81 -26 -117q-26 -37 -153 -130z" />
    <glyph glyph-name="Otilde" unicode="&#xd5;" 
d="M1154 399q0 -187 -113 -295q-132 -124 -403 -124t-402 124q-114 108 -114 295v566q0 187 114 295q131 124 402 124t403 -124q113 -108 113 -295v-566zM380 414q0 -207 258 -207t258 207v536q0 207 -258 207t-258 -207v-536zM513 1556q-31 0 -60 -28q-11 -10 -23 -27
l-21 -28l-103 83q38 70 86 112q57 48 117 48q59 0 129 -41q77 -45 107 -45q56 0 84 76l118 -61q-56 -172 -202 -172q-70 0 -131 40q-69 43 -101 43z" />
    <glyph glyph-name="uni1ECC" unicode="&#x1ecc;" 
d="M1154 399q0 -187 -113 -295q-132 -124 -403 -124t-402 124q-114 108 -114 295v566q0 187 114 295q131 124 402 124t403 -124q113 -108 113 -295v-566zM380 414q0 -207 258 -207t258 207v536q0 207 -258 207t-258 -207v-536zM534 -101h209v-199h-209v199z" />
    <glyph glyph-name="Ocircumflex" unicode="&#xd4;" 
d="M1154 399q0 -187 -113 -295q-132 -124 -403 -124t-402 124q-114 108 -114 295v566q0 187 114 295q131 124 402 124t403 -124q113 -108 113 -295v-566zM380 414q0 -207 258 -207t258 207v536q0 207 -258 207t-258 -207v-536zM378 1567q133 89 260 186q77 -58 128 -95
q63 -45 132 -91l-69 -115q-93 43 -191 100q-97 -56 -188 -100z" />
    <glyph glyph-name="uni1ED2" unicode="&#x1ed2;" 
d="M1154 399q0 -187 -113 -295q-132 -124 -403 -124t-402 124q-114 108 -114 295v566q0 187 114 295q131 124 402 124t403 -124q113 -108 113 -295v-566zM380 414q0 -207 258 -207t258 207v536q0 207 -258 207t-258 -207v-536zM812 1697q-167 88 -278 170l98 152
q54 -43 129 -93l141 -90zM379 1567q132 89 260 186q76 -58 128 -95q63 -45 132 -91l-70 -115q-92 43 -190 100q-97 -56 -188 -100z" />
    <glyph glyph-name="uni1ED0" unicode="&#x1ed0;" 
d="M1154 399q0 -187 -113 -295q-132 -124 -403 -124t-402 124q-114 108 -114 295v566q0 187 114 295q131 124 402 124t403 -124q113 -108 113 -295v-566zM380 414q0 -207 258 -207t258 207v536q0 207 -258 207t-258 -207v-536zM404 1851q88 55 142 90q75 49 131 93l96 -152
q-119 -87 -279 -170zM379 1567q132 89 260 186q76 -58 128 -95q63 -45 132 -91l-70 -115q-92 43 -190 100q-97 -56 -188 -100z" />
    <glyph glyph-name="uni1ED4" unicode="&#x1ed4;" 
d="M1154 399q0 -187 -113 -295q-132 -124 -403 -124t-402 124q-114 108 -114 295v566q0 187 114 295q131 124 402 124t403 -124q113 -108 113 -295v-566zM380 414q0 -207 258 -207t258 207v536q0 207 -258 207t-258 -207v-536zM745 1767q86 64 103 85q14 16 14 46
q0 50 -69 50q-26 0 -60 -4q-28 -4 -73 -12l-20 125q94 19 166 19q112 0 158 -46q40 -40 40 -125q0 -81 -26 -117q-26 -37 -153 -130zM379 1567q132 89 260 186q76 -58 128 -95q63 -45 132 -91l-70 -115q-92 43 -190 100q-97 -56 -188 -100z" />
    <glyph glyph-name="uni1ED6" unicode="&#x1ed6;" 
d="M1154 399q0 -187 -113 -295q-132 -124 -403 -124t-402 124q-114 108 -114 295v566q0 187 114 295q131 124 402 124t403 -124q113 -108 113 -295v-566zM380 414q0 -207 258 -207t258 207v536q0 207 -258 207t-258 -207v-536zM590 1817q-31 0 -60 -28q-11 -10 -23 -27
l-21 -28l-103 83q38 70 86 112q57 48 117 48q59 0 129 -41q77 -45 107 -45q56 0 84 76l118 -61q-56 -172 -202 -172q-70 0 -131 40q-69 43 -101 43zM379 1567q132 89 260 186q76 -58 128 -95q63 -45 132 -91l-70 -115q-92 43 -190 100q-97 -56 -188 -100z" />
    <glyph glyph-name="uni1ED8" unicode="&#x1ed8;" 
d="M1154 399q0 -187 -113 -295q-132 -124 -403 -124t-402 124q-114 108 -114 295v566q0 187 114 295q131 124 402 124t403 -124q113 -108 113 -295v-566zM380 414q0 -207 258 -207t258 207v536q0 207 -258 207t-258 -207v-536zM534 -101h209v-199h-209v199zM379 1567
q132 89 260 186q76 -58 128 -95q63 -45 132 -91l-70 -115q-92 43 -190 100q-97 -56 -188 -100z" />
    <glyph glyph-name="Ugrave" unicode="&#xd9;" horiz-adv-x="1294" 
d="M1151 1364v-969q0 -181 -109 -288q-129 -127 -395 -127q-267 0 -396 127q-108 107 -108 288v969h258v-948q0 -209 246 -209t246 209v948h258zM675 1452q-167 88 -278 170l98 152q54 -43 129 -93l142 -90z" />
    <glyph glyph-name="Uacute" unicode="&#xda;" horiz-adv-x="1294" 
d="M1151 1364v-969q0 -181 -109 -288q-129 -127 -395 -127q-267 0 -396 127q-108 107 -108 288v969h258v-948q0 -209 246 -209t246 209v948h258zM503 1591q89 55 142 90q75 49 131 93l96 -152q-119 -87 -278 -170z" />
    <glyph glyph-name="uni1EE6" unicode="&#x1ee6;" horiz-adv-x="1294" 
d="M1151 1364v-969q0 -181 -109 -288q-129 -127 -395 -127q-267 0 -396 127q-108 107 -108 288v969h258v-948q0 -209 246 -209t246 209v948h258zM580 1549q86 64 103 85q14 16 14 46q0 50 -69 50q-26 0 -60 -4q-28 -4 -73 -12l-20 125q94 19 166 19q112 0 158 -46
q40 -40 40 -125q0 -81 -26 -117q-26 -37 -153 -130z" />
    <glyph glyph-name="Utilde" unicode="&#x168;" horiz-adv-x="1294" 
d="M1151 1364v-969q0 -181 -109 -288q-129 -127 -395 -127q-267 0 -396 127q-108 107 -108 288v969h258v-948q0 -209 246 -209t246 209v948h258zM513 1556q-31 0 -60 -28q-11 -10 -23 -27l-21 -28l-103 83q38 70 86 112q57 48 117 48q59 0 129 -41q77 -45 107 -45
q56 0 84 76l118 -61q-56 -172 -202 -172q-70 0 -131 40q-69 43 -101 43z" />
    <glyph glyph-name="uni1EE4" unicode="&#x1ee4;" horiz-adv-x="1294" 
d="M1151 1364v-969q0 -181 -109 -288q-129 -127 -395 -127q-267 0 -396 127q-108 107 -108 288v969h258v-948q0 -209 246 -209t246 209v948h258zM534 -101h209v-199h-209v199z" />
    <glyph glyph-name="Uhorn" unicode="&#x1af;" horiz-adv-x="1294" 
d="M1151 1227v-832q0 -181 -109 -288q-129 -127 -395 -127q-267 0 -396 127q-108 107 -108 288v969h258v-948q0 -209 246 -209t246 209v948h203l23 56h-62v185h185v-201z" />
    <glyph glyph-name="uni1EEA" unicode="&#x1eea;" horiz-adv-x="1294" 
d="M676 1452q-167 88 -279 170l99 152q54 -43 129 -93l141 -90zM1151 1227v-832q0 -181 -108 -288q-129 -127 -396 -127q-266 0 -395 127q-109 107 -109 288v969h258v-948q0 -209 246 -209t246 209v948h203l23 56h-62v185h185v-201z" />
    <glyph glyph-name="uni1EE8" unicode="&#x1ee8;" horiz-adv-x="1294" 
d="M504 1591q88 55 141 90q76 49 131 93l96 -152q-119 -87 -278 -170zM1151 1227v-832q0 -181 -108 -288q-129 -127 -396 -127q-266 0 -395 127q-109 107 -109 288v969h258v-948q0 -209 246 -209t246 209v948h203l23 56h-62v185h185v-201z" />
    <glyph glyph-name="uni1EEC" unicode="&#x1eec;" horiz-adv-x="1294" 
d="M580 1549q86 64 103 85q14 16 14 46q0 50 -69 50q-26 0 -60 -4q-28 -4 -73 -12l-20 125q94 19 166 19q112 0 158 -46q40 -40 40 -125q0 -81 -26 -117q-26 -37 -153 -130zM1151 1227v-832q0 -181 -108 -288q-129 -127 -396 -127q-266 0 -395 127q-109 107 -109 288v969
h258v-948q0 -209 246 -209t246 209v948h203l23 56h-62v185h185v-201z" />
    <glyph glyph-name="uni1EEE" unicode="&#x1eee;" horiz-adv-x="1294" 
d="M513 1556q-31 0 -60 -28q-11 -10 -23 -27l-21 -28l-103 83q38 70 86 112q57 48 117 48q59 0 129 -41q77 -45 107 -45q56 0 84 76l118 -61q-56 -172 -202 -172q-70 0 -131 40q-69 43 -101 43zM1151 1227v-832q0 -181 -108 -288q-129 -127 -396 -127q-266 0 -395 127
q-109 107 -109 288v969h258v-948q0 -209 246 -209t246 209v948h203l23 56h-62v185h185v-201z" />
    <glyph glyph-name="uni1EF0" unicode="&#x1ef0;" horiz-adv-x="1294" 
d="M534 -101h209v-199h-209v199zM1151 1227v-832q0 -181 -108 -288q-129 -127 -396 -127q-266 0 -395 127q-109 107 -109 288v969h258v-948q0 -209 246 -209t246 209v948h203l23 56h-62v185h185v-201z" />
    <glyph glyph-name="Ohorn" unicode="&#x1a0;" 
d="M380 414q0 -207 258 -207t258 207v536q0 207 -258 207t-258 -207v-536zM1038 1263l3 -3q113 -108 113 -295v-566q0 -187 -113 -295q-132 -124 -403 -124t-402 124q-114 108 -114 295v566q0 187 114 295q131 124 402 124q188 0 309 -60l40 96h-61v185h184v-201z" />
    <glyph glyph-name="uni1EDC" unicode="&#x1edc;" 
d="M380 414q0 -207 258 -207t258 207v536q0 207 -258 207t-258 -207v-536zM638 1452q-167 88 -278 170l98 152q54 -43 129 -93l141 -90zM1038 1263l3 -3q113 -108 113 -295v-566q0 -187 -113 -295q-132 -124 -403 -124t-402 124q-114 108 -114 295v566q0 187 114 295
q131 124 402 124q189 0 310 -60l40 96h-62v185h185v-201z" />
    <glyph glyph-name="uni1EDA" unicode="&#x1eda;" 
d="M380 414q0 -207 258 -207t258 207v536q0 207 -258 207t-258 -207v-536zM511 1591q88 55 142 90q75 49 131 93l96 -152q-119 -87 -279 -170zM1038 1263l3 -3q113 -108 113 -295v-566q0 -187 -113 -295q-132 -124 -403 -124t-402 124q-114 108 -114 295v566q0 187 114 295
q131 124 402 124q189 0 310 -60l40 96h-62v185h185v-201z" />
    <glyph glyph-name="uni1EDE" unicode="&#x1ede;" 
d="M380 414q0 -207 258 -207t258 207v536q0 207 -258 207t-258 -207v-536zM554 1549q86 64 103 85q14 16 14 46q0 50 -69 50q-26 0 -60 -4q-28 -4 -73 -12l-20 125q94 19 166 19q112 0 158 -46q40 -40 40 -125q0 -81 -26 -117q-26 -37 -153 -130zM1038 1263l3 -3
q113 -108 113 -295v-566q0 -187 -113 -295q-132 -124 -403 -124t-402 124q-114 108 -114 295v566q0 187 114 295q131 124 402 124q189 0 310 -60l40 96h-62v185h185v-201z" />
    <glyph glyph-name="uni1EE0" unicode="&#x1ee0;" 
d="M380 414q0 -207 258 -207t258 207v536q0 207 -258 207t-258 -207v-536zM539 1652q-31 0 -60 -28q-11 -10 -23 -27l-21 -28l-103 83q38 70 86 112q57 48 117 48q59 0 129 -41q77 -45 107 -45q56 0 84 76l118 -61q-56 -172 -202 -172q-70 0 -131 40q-69 43 -101 43z
M1038 1263l3 -3q113 -108 113 -295v-566q0 -187 -113 -295q-132 -124 -403 -124t-402 124q-114 108 -114 295v566q0 187 114 295q131 124 402 124q189 0 310 -60l40 96h-62v185h185v-201z" />
    <glyph glyph-name="uni1EE2" unicode="&#x1ee2;" 
d="M380 414q0 -207 258 -207t258 207v536q0 207 -258 207t-258 -207v-536zM534 -101h209v-199h-209v199zM1038 1263l3 -3q113 -108 113 -295v-566q0 -187 -113 -295q-132 -124 -403 -124t-402 124q-114 108 -114 295v566q0 187 114 295q131 124 402 124q189 0 310 -60l40 96
h-62v185h185v-201z" />
    <glyph glyph-name="Ygrave" unicode="&#x1ef2;" horiz-adv-x="1159" 
d="M874 1364h275l-441 -969v-395h-258v395l-440 969h274l295 -688zM676 1452q-168 88 -279 170l98 152q54 -43 129 -93l142 -90z" />
    <glyph glyph-name="Yacute" unicode="&#xdd;" horiz-adv-x="1159" 
d="M874 1364h275l-441 -969v-395h-258v395l-440 969h274l295 -688zM504 1591q88 55 141 90q75 49 131 93l96 -152q-119 -87 -278 -170z" />
    <glyph glyph-name="uni1EF6" unicode="&#x1ef6;" horiz-adv-x="1159" 
d="M874 1364h275l-441 -969v-395h-258v395l-440 969h274l295 -688zM519 1549q86 64 103 85q14 16 14 46q0 50 -69 50q-26 0 -60 -4q-28 -4 -73 -12l-20 125q94 19 166 19q112 0 158 -46q40 -40 40 -125q0 -81 -26 -117q-26 -37 -153 -130z" />
    <glyph glyph-name="uni1EF8" unicode="&#x1ef8;" horiz-adv-x="1159" 
d="M874 1364h275l-441 -969v-395h-258v395l-440 969h274l295 -688zM513 1556q-31 0 -60 -28q-11 -10 -23 -27l-21 -28l-103 83q38 70 86 112q57 48 117 48q59 0 129 -41q77 -45 107 -45q56 0 84 76l118 -61q-56 -172 -202 -172q-70 0 -131 40q-69 43 -101 43z" />
    <glyph glyph-name="uni1EF4" unicode="&#x1ef4;" horiz-adv-x="1159" 
d="M874 1364h275l-441 -969v-395h-258v395l-440 969h274l295 -688zM482 -101h209v-199h-209v199z" />
    <glyph glyph-name="agrave" unicode="&#xe0;" horiz-adv-x="1005" 
d="M882 0h-205l-18 68q-134 -88 -297 -88q-131 0 -198 83q-62 78 -62 213q0 281 291 281h239v105q0 86 -35 116q-39 33 -155 33q-130 0 -277 -31l-30 191q155 47 342 47q229 0 320 -87q85 -80 85 -274v-657zM632 377h-184q-104 0 -104 -98q0 -101 100 -101q98 0 188 51v148z
M573 1104q-75 42 -149 88q-63 39 -156 100l98 152q72 -54 152 -107q68 -45 147 -94z" />
    <glyph glyph-name="aacute" unicode="&#xe1;" horiz-adv-x="1005" 
d="M882 0h-205l-18 68q-134 -88 -297 -88q-131 0 -198 83q-62 78 -62 213q0 281 291 281h239v105q0 86 -35 116q-39 33 -155 33q-130 0 -277 -31l-30 191q155 47 342 47q229 0 320 -87q85 -80 85 -274v-657zM632 377h-184q-104 0 -104 -98q0 -101 100 -101q98 0 188 51v148z
M344 1243q149 92 299 201l98 -152l-156 -100q-75 -46 -151 -88z" />
    <glyph glyph-name="uni1EA3" unicode="&#x1ea3;" horiz-adv-x="1005" 
d="M882 0h-205l-18 68q-134 -88 -297 -88q-131 0 -198 83q-62 78 -62 213q0 281 291 281h239v105q0 86 -35 116q-39 33 -155 33q-130 0 -277 -31l-30 191q155 47 342 47q229 0 320 -87q85 -80 85 -274v-657zM632 377h-184q-104 0 -104 -98q0 -101 100 -101q98 0 188 51v148z
M405 1165q86 64 103 85q14 16 14 46q0 50 -69 50q-26 0 -60 -4q-28 -4 -73 -12l-20 125q94 19 166 19q112 0 158 -46q40 -40 40 -125q0 -81 -26 -117q-26 -37 -153 -130z" />
    <glyph glyph-name="atilde" unicode="&#xe3;" horiz-adv-x="1005" 
d="M882 0h-205l-18 68q-134 -88 -297 -88q-131 0 -198 83q-62 78 -62 213q0 281 291 281h239v105q0 86 -35 116q-39 33 -155 33q-130 0 -277 -31l-30 191q155 47 342 47q229 0 320 -87q85 -80 85 -274v-657zM632 377h-184q-104 0 -104 -98q0 -101 100 -101q98 0 188 51v148z
M395 1204q-31 0 -60 -28q-11 -10 -24 -26l-21 -28l-102 84q38 69 86 110q57 48 117 48q63 0 129 -41q74 -43 106 -43q57 0 84 76l119 -62q-56 -172 -203 -172q-68 0 -131 39q-63 43 -100 43z" />
    <glyph glyph-name="uni1EA1" unicode="&#x1ea1;" horiz-adv-x="1005" 
d="M882 0h-205l-18 68q-134 -88 -297 -88q-131 0 -198 83q-62 78 -62 213q0 281 291 281h239v105q0 86 -35 116q-39 33 -155 33q-130 0 -277 -31l-30 191q155 47 342 47q229 0 320 -87q85 -80 85 -274v-657zM632 377h-184q-104 0 -104 -98q0 -101 100 -101q98 0 188 51v148z
M421 -101h209v-199h-209v199z" />
    <glyph glyph-name="acircumflex" unicode="&#xe2;" horiz-adv-x="1005" 
d="M882 0h-205l-18 68q-134 -88 -297 -88q-131 0 -198 83q-62 78 -62 213q0 281 291 281h239v105q0 86 -35 116q-39 33 -155 33q-130 0 -277 -31l-30 191q155 47 342 47q229 0 320 -87q85 -80 85 -274v-657zM632 377h-184q-104 0 -104 -98q0 -101 100 -101q98 0 188 51v148z
M231 1202q138 100 287 223l142 -114q77 -61 142 -109l-77 -110q-65 37 -112 68l-95 65q-95 -67 -207 -133z" />
    <glyph glyph-name="uni1EA7" unicode="&#x1ea7;" horiz-adv-x="1005" 
d="M882 0h-205l-18 68q-134 -88 -297 -88q-131 0 -198 83q-62 78 -62 213q0 281 291 281h239v105q0 86 -35 116q-39 33 -155 33q-130 0 -277 -31l-30 191q155 47 342 47q229 0 320 -87q85 -80 85 -274v-657zM632 377h-184q-104 0 -104 -98q0 -101 100 -101q98 0 188 51v148z
M695 1375q-75 42 -149 88q-63 39 -156 100l98 152q72 -54 152 -107q68 -45 147 -94zM231 1202q138 100 287 223l142 -114q77 -61 142 -109l-77 -110q-65 37 -112 68l-95 65q-95 -67 -207 -133z" />
    <glyph glyph-name="uni1EA5" unicode="&#x1ea5;" horiz-adv-x="1005" 
d="M882 0h-205l-18 68q-134 -88 -297 -88q-131 0 -198 83q-62 78 -62 213q0 281 291 281h239v105q0 86 -35 116q-39 33 -155 33q-130 0 -277 -31l-30 191q155 47 342 47q229 0 320 -87q85 -80 85 -274v-657zM632 377h-184q-104 0 -104 -98q0 -101 100 -101q98 0 188 51v148z
M283 1522q149 92 299 201l98 -152l-156 -100q-75 -46 -151 -88zM231 1202q138 100 287 223l142 -114q77 -61 142 -109l-77 -110q-65 37 -112 68l-95 65q-95 -67 -207 -133z" />
    <glyph glyph-name="uni1EA9" unicode="&#x1ea9;" horiz-adv-x="1005" 
d="M882 0h-205l-18 68q-134 -88 -297 -88q-131 0 -198 83q-62 78 -62 213q0 281 291 281h239v105q0 86 -35 116q-39 33 -155 33q-130 0 -277 -31l-30 191q155 47 342 47q229 0 320 -87q85 -80 85 -274v-657zM632 377h-184q-104 0 -104 -98q0 -101 100 -101q98 0 188 51v148z
M641 1418q86 64 103 85q14 16 14 46q0 50 -69 50q-26 0 -60 -4q-28 -4 -73 -12l-20 125q94 19 166 19q112 0 158 -46q40 -40 40 -125q0 -81 -26 -117q-26 -37 -153 -130zM231 1202q138 100 287 223l142 -114q77 -61 142 -109l-77 -110q-65 37 -112 68l-95 65
q-95 -67 -207 -133z" />
    <glyph glyph-name="uni1EAB" unicode="&#x1eab;" horiz-adv-x="1005" 
d="M882 0h-205l-18 68q-134 -88 -297 -88q-131 0 -198 83q-62 78 -62 213q0 281 291 281h239v105q0 86 -35 116q-39 33 -155 33q-130 0 -277 -31l-30 191q155 47 342 47q229 0 320 -87q85 -80 85 -274v-657zM632 377h-184q-104 0 -104 -98q0 -101 100 -101q98 0 188 51v148z
M481 1484q-31 0 -60 -28q-11 -10 -24 -26l-21 -28l-102 84q38 69 86 110q57 48 117 48q63 0 129 -41q74 -43 106 -43q57 0 84 76l119 -62q-56 -172 -203 -172q-68 0 -131 39q-63 43 -100 43zM231 1202q138 100 287 223l142 -114q77 -61 142 -109l-77 -110q-65 37 -112 68
l-95 65q-95 -67 -207 -133z" />
    <glyph glyph-name="uni1EAD" unicode="&#x1ead;" horiz-adv-x="1005" 
d="M882 0h-205l-18 68q-134 -88 -297 -88q-131 0 -198 83q-62 78 -62 213q0 281 291 281h239v105q0 86 -35 116q-39 33 -155 33q-130 0 -277 -31l-30 191q155 47 342 47q229 0 320 -87q85 -80 85 -274v-657zM632 377h-184q-104 0 -104 -98q0 -101 100 -101q98 0 188 51v148z
M421 -101h209v-199h-209v199zM231 1202q138 100 287 223l142 -114q77 -61 142 -109l-77 -110q-65 37 -112 68l-95 65q-95 -67 -207 -133z" />
    <glyph glyph-name="abreve" unicode="&#x103;" horiz-adv-x="1005" 
d="M882 0h-205l-18 68q-134 -88 -297 -88q-131 0 -198 83q-62 78 -62 213q0 281 291 281h239v105q0 86 -35 116q-39 33 -155 33q-130 0 -277 -31l-30 191q155 47 342 47q229 0 320 -87q85 -80 85 -274v-657zM632 377h-184q-104 0 -104 -98q0 -101 100 -101q98 0 188 51v148z
M772 1283q-19 -87 -88 -145q-79 -66 -194 -66t-193 66q-68 58 -87 145l113 59q46 -130 167 -130q120 0 169 130z" />
    <glyph glyph-name="uni1EB1" unicode="&#x1eb1;" horiz-adv-x="1005" 
d="M882 0h-205l-18 68q-134 -88 -297 -88q-131 0 -198 83q-62 78 -62 213q0 281 291 281h239v105q0 86 -35 116q-39 33 -155 33q-130 0 -277 -31l-30 191q155 47 342 47q229 0 320 -87q85 -80 85 -274v-657zM632 377h-184q-104 0 -104 -98q0 -101 100 -101q98 0 188 51v148z
M538 1323q-75 42 -149 88q-63 39 -156 100l98 152q72 -54 152 -107q68 -45 147 -94zM773 1283q-19 -87 -89 -145q-79 -66 -194 -66q-114 0 -192 66q-69 58 -88 145l113 59q46 -130 167 -130q120 0 169 130z" />
    <glyph glyph-name="uni1EAF" unicode="&#x1eaf;" horiz-adv-x="1005" 
d="M882 0h-205l-18 68q-134 -88 -297 -88q-131 0 -198 83q-62 78 -62 213q0 281 291 281h239v105q0 86 -35 116q-39 33 -155 33q-130 0 -277 -31l-30 191q155 47 342 47q229 0 320 -87q85 -80 85 -274v-657zM632 377h-184q-104 0 -104 -98q0 -101 100 -101q98 0 188 51v148z
M378 1461q149 92 299 201l98 -152l-156 -100q-75 -46 -151 -88zM773 1283q-19 -87 -89 -145q-79 -66 -194 -66q-114 0 -192 66q-69 58 -88 145l113 59q46 -130 167 -130q120 0 169 130z" />
    <glyph glyph-name="uni1EB3" unicode="&#x1eb3;" horiz-adv-x="1005" 
d="M882 0h-205l-18 68q-134 -88 -297 -88q-131 0 -198 83q-62 78 -62 213q0 281 291 281h239v105q0 86 -35 116q-39 33 -155 33q-130 0 -277 -31l-30 191q155 47 342 47q229 0 320 -87q85 -80 85 -274v-657zM632 377h-184q-104 0 -104 -98q0 -101 100 -101q98 0 188 51v148z
M439 1401q86 64 103 85q14 16 14 46q0 50 -69 50q-26 0 -60 -4q-28 -4 -73 -12l-20 125q94 19 166 19q112 0 158 -46q40 -40 40 -125q0 -81 -26 -117q-26 -37 -153 -130zM773 1283q-19 -87 -89 -145q-79 -66 -194 -66q-114 0 -192 66q-69 58 -88 145l113 59
q46 -130 167 -130q120 0 169 130z" />
    <glyph glyph-name="uni1EB5" unicode="&#x1eb5;" horiz-adv-x="1005" 
d="M882 0h-205l-18 68q-134 -88 -297 -88q-131 0 -198 83q-62 78 -62 213q0 281 291 281h239v105q0 86 -35 116q-39 33 -155 33q-130 0 -277 -31l-30 191q155 47 342 47q229 0 320 -87q85 -80 85 -274v-657zM632 377h-184q-104 0 -104 -98q0 -101 100 -101q98 0 188 51v148z
M464 1458q-31 0 -60 -28q-11 -10 -24 -26l-21 -28l-102 84q38 69 86 110q57 48 117 48q63 0 129 -41q74 -43 106 -43q57 0 84 76l119 -62q-56 -172 -203 -172q-68 0 -131 39q-63 43 -100 43zM773 1283q-19 -87 -89 -145q-79 -66 -194 -66q-114 0 -192 66q-69 58 -88 145
l113 59q46 -130 167 -130q120 0 169 130z" />
    <glyph glyph-name="uni1EB7" unicode="&#x1eb7;" horiz-adv-x="1005" 
d="M882 0h-205l-18 68q-134 -88 -297 -88q-131 0 -198 83q-62 78 -62 213q0 281 291 281h239v105q0 86 -35 116q-39 33 -155 33q-130 0 -277 -31l-30 191q155 47 342 47q229 0 320 -87q85 -80 85 -274v-657zM632 377h-184q-104 0 -104 -98q0 -101 100 -101q98 0 188 51v148z
M421 -101h209v-199h-209v199zM773 1283q-19 -87 -89 -145q-79 -66 -194 -66q-114 0 -192 66q-69 58 -88 145l113 59q46 -130 167 -130q120 0 169 130z" />
    <glyph glyph-name="egrave" unicode="&#xe8;" horiz-adv-x="985" 
d="M348 352q0 -168 194 -168q150 0 306 47l38 -188q-166 -63 -366 -63q-226 0 -329 102q-93 94 -93 283v264q0 176 87 273q103 116 327 116q221 0 315 -120q76 -96 76 -282v-213h-555v-51zM348 604h317v49q0 160 -151 160q-166 0 -166 -160v-49zM551 1104q-76 42 -150 88
q-63 39 -156 100l99 152q72 -54 152 -107q68 -45 147 -94z" />
    <glyph glyph-name="eacute" unicode="&#xe9;" horiz-adv-x="985" 
d="M348 352q0 -168 194 -168q150 0 306 47l38 -188q-166 -63 -366 -63q-226 0 -329 102q-93 94 -93 283v264q0 176 87 273q103 116 327 116q221 0 315 -120q76 -96 76 -282v-213h-555v-51zM348 604h317v49q0 160 -151 160q-166 0 -166 -160v-49zM338 1243q149 92 299 201
l98 -152l-156 -100q-75 -46 -151 -88z" />
    <glyph glyph-name="uni1EBB" unicode="&#x1ebb;" horiz-adv-x="985" 
d="M348 352q0 -168 194 -168q150 0 306 47l38 -188q-166 -63 -366 -63q-226 0 -329 102q-93 94 -93 283v264q0 176 87 273q103 116 327 116q221 0 315 -120q76 -96 76 -282v-213h-555v-51zM348 604h317v49q0 160 -151 160q-166 0 -166 -160v-49zM404 1165q86 64 103 85
q14 16 14 46q0 50 -69 50q-26 0 -60 -4q-28 -4 -73 -12l-20 125q94 19 166 19q112 0 158 -46q40 -40 40 -125q0 -81 -26 -117q-26 -37 -153 -130z" />
    <glyph glyph-name="uni1EBD" unicode="&#x1ebd;" horiz-adv-x="985" 
d="M348 352q0 -168 194 -168q150 0 306 47l38 -188q-166 -63 -366 -63q-226 0 -329 102q-93 94 -93 283v264q0 176 87 273q103 116 327 116q221 0 315 -120q76 -96 76 -282v-213h-555v-51zM348 604h317v49q0 160 -151 160q-166 0 -166 -160v-49zM395 1204q-31 0 -60 -28
q-11 -10 -24 -26l-21 -28l-102 84q37 69 86 110q56 48 116 48q64 0 129 -41q74 -43 107 -43q57 0 84 76l119 -62q-57 -172 -203 -172q-68 0 -131 39q-63 43 -100 43z" />
    <glyph glyph-name="uni1EB9" unicode="&#x1eb9;" horiz-adv-x="985" 
d="M348 352q0 -168 194 -168q150 0 306 47l38 -188q-166 -63 -366 -63q-226 0 -329 102q-93 94 -93 283v264q0 176 87 273q103 116 327 116q221 0 315 -120q76 -96 76 -282v-213h-555v-51zM348 604h317v49q0 160 -151 160q-166 0 -166 -160v-49zM420 -101h209v-199h-209v199
z" />
    <glyph glyph-name="ecircumflex" unicode="&#xea;" horiz-adv-x="985" 
d="M348 352q0 -168 194 -168q150 0 306 47l38 -188q-166 -63 -366 -63q-226 0 -329 102q-93 94 -93 283v264q0 176 87 273q103 116 327 116q221 0 315 -120q76 -96 76 -282v-213h-555v-51zM348 604h317v49q0 160 -151 160q-166 0 -166 -160v-49zM223 1202q138 100 287 223
l142 -114q77 -61 142 -109l-78 -110q-64 37 -111 68l-95 65q-95 -67 -207 -133z" />
    <glyph glyph-name="uni1EC1" unicode="&#x1ec1;" horiz-adv-x="985" 
d="M348 352q0 -168 194 -168q150 0 306 47l38 -188q-166 -63 -366 -63q-226 0 -329 102q-93 94 -93 283v264q0 176 87 273q103 116 327 116q221 0 315 -120q76 -96 76 -282v-213h-555v-51zM348 604h317v49q0 160 -151 160q-166 0 -166 -160v-49zM691 1374q-76 42 -150 88
q-63 39 -156 100l99 152q72 -54 152 -107q68 -45 147 -94zM223 1202q138 100 287 223l142 -114q77 -61 142 -109l-78 -110q-64 37 -111 68l-95 65q-95 -67 -207 -133z" />
    <glyph glyph-name="uni1EBF" unicode="&#x1ebf;" horiz-adv-x="985" 
d="M348 352q0 -168 194 -168q150 0 306 47l38 -188q-166 -63 -366 -63q-226 0 -329 102q-93 94 -93 283v264q0 176 87 273q103 116 327 116q221 0 315 -120q76 -96 76 -282v-213h-555v-51zM348 604h317v49q0 160 -151 160q-166 0 -166 -160v-49zM277 1531q149 92 299 201
l98 -152l-156 -100q-75 -46 -151 -88zM223 1202q138 100 287 223l142 -114q77 -61 142 -109l-78 -110q-64 37 -111 68l-95 65q-95 -67 -207 -133z" />
    <glyph glyph-name="uni1EC3" unicode="&#x1ec3;" horiz-adv-x="985" 
d="M348 352q0 -168 194 -168q150 0 306 47l38 -188q-166 -63 -366 -63q-226 0 -329 102q-93 94 -93 283v264q0 176 87 273q103 116 327 116q221 0 315 -120q76 -96 76 -282v-213h-555v-51zM348 604h317v49q0 160 -151 160q-166 0 -166 -160v-49zM639 1400q86 64 103 85
q14 16 14 46q0 50 -69 50q-26 0 -60 -4q-28 -4 -73 -12l-20 125q94 19 166 19q112 0 158 -46q40 -40 40 -125q0 -81 -26 -117q-26 -37 -153 -130zM223 1202q138 100 287 223l142 -114q77 -61 142 -109l-78 -110q-64 37 -111 68l-95 65q-95 -67 -207 -133z" />
    <glyph glyph-name="uni1EC5" unicode="&#x1ec5;" horiz-adv-x="985" 
d="M348 352q0 -168 194 -168q150 0 306 47l38 -188q-166 -63 -366 -63q-226 0 -329 102q-93 94 -93 283v264q0 176 87 273q103 116 327 116q221 0 315 -120q76 -96 76 -282v-213h-555v-51zM348 604h317v49q0 160 -151 160q-166 0 -166 -160v-49zM473 1474q-31 0 -60 -28
q-11 -10 -24 -26l-21 -28l-102 84q37 69 86 110q56 48 116 48q64 0 129 -41q74 -43 107 -43q57 0 84 76l119 -62q-57 -172 -203 -172q-68 0 -131 39q-63 43 -100 43zM223 1202q138 100 287 223l142 -114q77 -61 142 -109l-78 -110q-64 37 -111 68l-95 65q-95 -67 -207 -133z
" />
    <glyph glyph-name="uni1EC7" unicode="&#x1ec7;" horiz-adv-x="985" 
d="M348 352q0 -168 194 -168q150 0 306 47l38 -188q-166 -63 -366 -63q-226 0 -329 102q-93 94 -93 283v264q0 176 87 273q103 116 327 116q221 0 315 -120q76 -96 76 -282v-213h-555v-51zM348 604h317v49q0 160 -151 160q-166 0 -166 -160v-49zM420 -101h209v-199h-209v199
zM223 1202q138 100 287 223l142 -114q77 -61 142 -109l-78 -110q-64 37 -111 68l-95 65q-95 -67 -207 -133z" />
    <glyph glyph-name="igrave" unicode="&#xec;" horiz-adv-x="536" 
d="M144 0v997h250v-997h-250zM281 1104q-75 42 -149 88q-63 39 -156 100l98 152q72 -54 152 -107q68 -45 147 -94z" />
    <glyph glyph-name="iacute" unicode="&#xed;" horiz-adv-x="536" 
d="M143 0v997h250v-997h-250zM170 1243q149 92 299 201l98 -152l-156 -100q-75 -46 -151 -88z" />
    <glyph glyph-name="uni1EC9" unicode="&#x1ec9;" horiz-adv-x="536" 
d="M144 0v997h250v-997h-250zM187 1165q86 64 103 85q14 16 14 46q0 50 -69 50q-26 0 -60 -4q-28 -4 -73 -12l-20 125q94 19 166 19q112 0 158 -46q40 -40 40 -125q0 -81 -26 -117q-26 -37 -153 -130z" />
    <glyph glyph-name="itilde" unicode="&#x129;" horiz-adv-x="536" 
d="M143 0v997h250v-997h-250zM152 1204q-31 0 -60 -28q-11 -10 -24 -26l-21 -28l-102 84q38 69 86 110q57 48 117 48q63 0 129 -41q74 -43 106 -43q57 0 84 76l119 -62q-56 -172 -203 -172q-68 0 -131 39q-63 43 -100 43z" />
    <glyph glyph-name="uni1ECB" unicode="&#x1ecb;" horiz-adv-x="536" 
d="M143 0v997h250v-997h-250zM143 1139v288h250v-288h-250zM155 -101h209v-199h-209v199z" />
    <glyph glyph-name="ograve" unicode="&#xf2;" horiz-adv-x="1064" 
d="M966 373q0 -176 -88 -274q-109 -119 -346 -119t-345 119q-89 98 -89 274v252q0 175 89 273q108 120 345 120t346 -120q88 -98 88 -273v-252zM716 633q0 172 -184 172t-184 -172v-268q0 -172 184 -172t184 172v268zM565 1104q-76 42 -150 88q-62 39 -155 100l98 152
q72 -54 152 -107q68 -45 147 -94z" />
    <glyph glyph-name="oacute" unicode="&#xf3;" horiz-adv-x="1064" 
d="M966 373q0 -176 -88 -274q-109 -119 -346 -119t-345 119q-89 98 -89 274v252q0 175 89 273q108 120 345 120t346 -120q88 -98 88 -273v-252zM716 633q0 172 -184 172t-184 -172v-268q0 -172 184 -172t184 172v268zM391 1243q149 92 299 201l98 -152l-156 -100
q-74 -46 -151 -88z" />
    <glyph glyph-name="uni1ECF" unicode="&#x1ecf;" horiz-adv-x="1064" 
d="M966 373q0 -176 -88 -274q-109 -119 -346 -119t-345 119q-89 98 -89 274v252q0 175 89 273q108 120 345 120t346 -120q88 -98 88 -273v-252zM716 633q0 172 -184 172t-184 -172v-268q0 -172 184 -172t184 172v268zM448 1165q86 64 103 85q14 16 14 46q0 50 -69 50
q-26 0 -60 -4q-28 -4 -73 -12l-20 125q94 19 166 19q112 0 158 -46q40 -40 40 -125q0 -81 -26 -117q-26 -37 -153 -130z" />
    <glyph glyph-name="otilde" unicode="&#xf5;" horiz-adv-x="1064" 
d="M966 373q0 -176 -88 -274q-109 -119 -346 -119t-345 119q-89 98 -89 274v252q0 175 89 273q108 120 345 120t346 -120q88 -98 88 -273v-252zM716 633q0 172 -184 172t-184 -172v-268q0 -172 184 -172t184 172v268zM422 1204q-31 0 -60 -28q-11 -10 -24 -26l-21 -28
l-102 84q37 69 86 110q56 48 116 48q64 0 130 -41q73 -43 106 -43q57 0 84 76l119 -62q-56 -172 -203 -172q-68 0 -131 39q-63 43 -100 43z" />
    <glyph glyph-name="uni1ECD" unicode="&#x1ecd;" horiz-adv-x="1064" 
d="M966 373q0 -176 -88 -274q-109 -119 -346 -119t-345 119q-89 98 -89 274v252q0 175 89 273q108 120 345 120t346 -120q88 -98 88 -273v-252zM716 633q0 172 -184 172t-184 -172v-268q0 -172 184 -172t184 172v268zM428 -101h209v-199h-209v199z" />
    <glyph glyph-name="ocircumflex" unicode="&#xf4;" horiz-adv-x="1064" 
d="M966 373q0 -176 -88 -274q-109 -119 -346 -119t-345 119q-89 98 -89 274v252q0 175 89 273q108 120 345 120t346 -120q88 -98 88 -273v-252zM716 633q0 172 -184 172t-184 -172v-268q0 -172 184 -172t184 172v268zM248 1202q137 100 286 223l143 -114q77 -61 142 -109
l-78 -110q-64 37 -112 68l-95 65q-95 -67 -207 -133z" />
    <glyph glyph-name="uni1ED3" unicode="&#x1ed3;" horiz-adv-x="1064" 
d="M966 373q0 -176 -88 -274q-109 -119 -346 -119t-345 119q-89 98 -89 274v252q0 175 89 273q108 120 345 120t346 -120q88 -98 88 -273v-252zM716 633q0 172 -184 172t-184 -172v-268q0 -172 184 -172t184 172v268zM721 1357q-76 42 -150 88q-62 39 -155 100l98 152
q72 -54 152 -107q68 -45 147 -94zM248 1202q137 100 286 223l143 -114q77 -61 142 -109l-78 -110q-64 37 -112 68l-95 65q-95 -67 -207 -133z" />
    <glyph glyph-name="uni1ED1" unicode="&#x1ed1;" horiz-adv-x="1064" 
d="M966 373q0 -176 -88 -274q-109 -119 -346 -119t-345 119q-89 98 -89 274v252q0 175 89 273q108 120 345 120t346 -120q88 -98 88 -273v-252zM716 633q0 172 -184 172t-184 -172v-268q0 -172 184 -172t184 172v268zM295 1522q149 92 299 201l98 -152l-156 -100
q-74 -46 -151 -88zM248 1202q137 100 286 223l143 -114q77 -61 142 -109l-78 -110q-64 37 -112 68l-95 65q-95 -67 -207 -133z" />
    <glyph glyph-name="uni1ED5" unicode="&#x1ed5;" horiz-adv-x="1064" 
d="M966 373q0 -176 -88 -274q-109 -119 -346 -119t-345 119q-89 98 -89 274v252q0 175 89 273q108 120 345 120t346 -120q88 -98 88 -273v-252zM716 633q0 172 -184 172t-184 -172v-268q0 -172 184 -172t184 172v268zM666 1409q86 64 103 85q14 16 14 46q0 50 -69 50
q-26 0 -60 -4q-28 -4 -73 -12l-20 125q94 19 166 19q112 0 158 -46q40 -40 40 -125q0 -81 -26 -117q-26 -37 -153 -130zM248 1202q137 100 286 223l143 -114q77 -61 142 -109l-78 -110q-64 37 -112 68l-95 65q-95 -67 -207 -133z" />
    <glyph glyph-name="uni1ED7" unicode="&#x1ed7;" horiz-adv-x="1064" 
d="M966 373q0 -176 -88 -274q-109 -119 -346 -119t-345 119q-89 98 -89 274v252q0 175 89 273q108 120 345 120t346 -120q88 -98 88 -273v-252zM716 633q0 172 -184 172t-184 -172v-268q0 -172 184 -172t184 172v268zM501 1501q-31 0 -60 -28q-11 -10 -24 -26l-21 -28
l-102 84q37 69 86 110q56 48 116 48q64 0 130 -41q73 -43 106 -43q57 0 84 76l119 -62q-56 -172 -203 -172q-68 0 -131 39q-63 43 -100 43zM248 1202q137 100 286 223l143 -114q77 -61 142 -109l-78 -110q-64 37 -112 68l-95 65q-95 -67 -207 -133z" />
    <glyph glyph-name="uni1ED9" unicode="&#x1ed9;" horiz-adv-x="1064" 
d="M966 373q0 -176 -88 -274q-109 -119 -346 -119t-345 119q-89 98 -89 274v252q0 175 89 273q108 120 345 120t346 -120q88 -98 88 -273v-252zM716 633q0 172 -184 172t-184 -172v-268q0 -172 184 -172t184 172v268zM428 -101h209v-199h-209v199zM248 1202q137 100 286 223
l143 -114q77 -61 142 -109l-78 -110q-64 37 -112 68l-95 65q-95 -67 -207 -133z" />
    <glyph glyph-name="glyph216" unicode="&#xf9;" horiz-adv-x="1116" 
d="M383 997v-696q0 -80 80 -80q99 0 260 84v692h250v-997h-191l-24 84q-213 -104 -400 -104q-225 0 -225 294v723h250zM592 1104q-76 42 -150 88q-62 39 -155 100l98 152q72 -54 152 -107q68 -45 147 -94z" />
    <glyph glyph-name="glyph217" unicode="&#xfa;" horiz-adv-x="1116" 
d="M383 997v-696q0 -80 80 -80q99 0 260 84v692h250v-997h-191l-24 84q-213 -104 -400 -104q-225 0 -225 294v723h250zM418 1243q149 92 299 201l98 -152l-156 -100q-75 -46 -151 -88z" />
    <glyph glyph-name="uni1EE7" unicode="&#x1ee7;" horiz-adv-x="1116" 
d="M383 997v-696q0 -80 80 -80q99 0 260 84v692h250v-997h-191l-24 84q-213 -104 -400 -104q-225 0 -225 294v723h250zM491 1165q86 64 103 85q14 16 14 46q0 50 -69 50q-26 0 -60 -4q-28 -4 -73 -12l-20 125q94 19 166 19q112 0 158 -46q40 -40 40 -125q0 -81 -26 -117
q-26 -37 -153 -130z" />
    <glyph glyph-name="utilde" unicode="&#x169;" horiz-adv-x="1116" 
d="M383 997v-696q0 -80 80 -80q99 0 260 84v692h250v-997h-191l-24 84q-213 -104 -400 -104q-225 0 -225 294v723h250zM474 1204q-31 0 -60 -28q-11 -10 -24 -26l-21 -28l-102 84q38 69 86 110q57 48 117 48q63 0 129 -41q73 -43 106 -43q57 0 84 76l119 -62
q-56 -172 -203 -172q-68 0 -131 39q-63 43 -100 43z" />
    <glyph glyph-name="uni1EE5" unicode="&#x1ee5;" horiz-adv-x="1116" 
d="M383 997v-696q0 -80 80 -80q99 0 260 84v692h250v-997h-191l-24 84q-213 -104 -400 -104q-225 0 -225 294v723h250zM471 -101h209v-199h-209v199z" />
    <glyph glyph-name="uhorn" unicode="&#x1b0;" horiz-adv-x="1116" 
d="M383 997v-696q0 -80 80 -80q99 0 260 84v692h250v-997h-191l-24 84q-213 -104 -400 -104q-225 0 -225 294v723h250zM1068 1213v-201l-113 -218l-83 58l73 176h-62v185h185z" />
    <glyph glyph-name="uni1EEB" unicode="&#x1eeb;" horiz-adv-x="1116" 
d="M592 1104q-76 42 -150 88q-62 39 -155 100l98 152q72 -54 152 -107q68 -45 147 -94zM973 827v-827h-191l-24 84q-213 -104 -400 -104q-225 0 -225 294v723h250v-696q0 -80 80 -80q99 0 260 84v692h209l13 31h-62v185h185v-201z" />
    <glyph glyph-name="uni1EE9" unicode="&#x1ee9;" horiz-adv-x="1116" 
d="M418 1243q149 92 299 201l98 -152l-156 -100q-75 -46 -151 -88zM973 827v-827h-191l-24 84q-213 -104 -400 -104q-225 0 -225 294v723h250v-696q0 -80 80 -80q99 0 260 84v692h209l13 31h-62v185h185v-201z" />
    <glyph glyph-name="uni1EED" unicode="&#x1eed;" horiz-adv-x="1116" 
d="M492 1165q86 64 103 85q14 16 14 46q0 50 -69 50q-26 0 -60 -4q-28 -4 -73 -12l-20 125q94 19 166 19q112 0 158 -46q40 -40 40 -125q0 -81 -26 -117q-26 -37 -153 -130zM973 827v-827h-191l-24 84q-213 -104 -400 -104q-225 0 -225 294v723h250v-696q0 -80 80 -80
q99 0 260 84v692h209l13 31h-62v185h185v-201z" />
    <glyph glyph-name="uni1EEF" unicode="&#x1eef;" horiz-adv-x="1116" 
d="M474 1248q-31 0 -60 -28q-11 -10 -24 -26l-21 -28l-102 84q38 69 86 110q57 48 117 48q63 0 129 -41q74 -43 106 -43q57 0 84 76l119 -62q-56 -172 -203 -172q-68 0 -131 39q-63 43 -100 43zM973 827v-827h-191l-24 84q-213 -104 -400 -104q-225 0 -225 294v723h250v-696
q0 -80 80 -80q99 0 260 84v692h209l13 31h-62v185h185v-201z" />
    <glyph glyph-name="uni1EF1" unicode="&#x1ef1;" horiz-adv-x="1116" 
d="M471 -101h209v-199h-209v199zM973 827v-827h-191l-24 84q-213 -104 -400 -104q-225 0 -225 294v723h250v-696q0 -80 80 -80q99 0 260 84v692h209l13 31h-62v185h185v-201z" />
    <glyph glyph-name="ohorn" unicode="&#x1a1;" horiz-adv-x="1064" 
d="M717 633q0 172 -185 172q-184 0 -184 -172v-268q0 -172 184 -172q185 0 185 172v268zM894 878q73 -95 73 -253v-252q0 -176 -89 -274q-109 -119 -346 -119q-236 0 -345 119q-89 98 -89 274v252q0 175 89 273q109 120 345 120q173 0 277 -64l31 74h-62v185h185v-201z" />
    <glyph glyph-name="uni1EDD" unicode="&#x1edd;" horiz-adv-x="1064" 
d="M717 633q0 172 -185 172q-184 0 -184 -172v-268q0 -172 184 -172q185 0 185 172v268zM565 1104q-75 42 -149 88q-63 39 -156 100l98 152q73 -54 152 -107q68 -45 147 -94zM894 878q73 -95 73 -253v-252q0 -176 -89 -274q-109 -119 -346 -119q-236 0 -345 119
q-89 98 -89 274v252q0 175 89 273q109 120 345 120q173 0 277 -64l31 74h-62v185h185v-201z" />
    <glyph glyph-name="uni1EDB" unicode="&#x1edb;" horiz-adv-x="1064" 
d="M717 633q0 172 -185 172q-184 0 -184 -172v-268q0 -172 184 -172q185 0 185 172v268zM391 1243q150 92 299 201l98 -152l-155 -100q-75 -46 -152 -88zM894 878q73 -95 73 -253v-252q0 -176 -89 -274q-109 -119 -346 -119q-236 0 -345 119q-89 98 -89 274v252
q0 175 89 273q109 120 345 120q173 0 277 -64l31 74h-62v185h185v-201z" />
    <glyph glyph-name="uni1EDF" unicode="&#x1edf;" horiz-adv-x="1064" 
d="M717 633q0 172 -185 172q-184 0 -184 -172v-268q0 -172 184 -172q185 0 185 172v268zM449 1165q86 64 103 85q14 16 14 46q0 50 -69 50q-26 0 -60 -4q-28 -4 -73 -12l-20 125q94 19 166 19q112 0 158 -46q40 -40 40 -125q0 -81 -26 -117q-26 -37 -153 -130zM894 878
q73 -95 73 -253v-252q0 -176 -89 -274q-109 -119 -346 -119q-236 0 -345 119q-89 98 -89 274v252q0 175 89 273q109 120 345 120q173 0 277 -64l31 74h-62v185h185v-201z" />
    <glyph glyph-name="uni1EE1" unicode="&#x1ee1;" horiz-adv-x="1064" 
d="M717 633q0 172 -185 172q-184 0 -184 -172v-268q0 -172 184 -172q185 0 185 172v268zM422 1283q-31 0 -60 -28q-11 -10 -24 -26l-21 -28l-102 84q38 69 86 110q57 48 117 48q63 0 129 -41q74 -43 106 -43q57 0 84 76l119 -62q-56 -172 -203 -172q-68 0 -131 39
q-63 43 -100 43zM894 878q73 -95 73 -253v-252q0 -176 -89 -274q-109 -119 -346 -119q-236 0 -345 119q-89 98 -89 274v252q0 175 89 273q109 120 345 120q173 0 277 -64l31 74h-62v185h185v-201z" />
    <glyph glyph-name="uni1EE3" unicode="&#x1ee3;" horiz-adv-x="1064" 
d="M717 633q0 172 -185 172q-184 0 -184 -172v-268q0 -172 184 -172q185 0 185 172v268zM428 -101h209v-199h-209v199zM894 878q73 -95 73 -253v-252q0 -176 -89 -274q-109 -119 -346 -119q-236 0 -345 119q-89 98 -89 274v252q0 175 89 273q109 120 345 120q173 0 277 -64
l31 74h-62v185h185v-201z" />
    <glyph glyph-name="ygrave" unicode="&#x1ef3;" horiz-adv-x="978" 
d="M659 0l-133 -403h-237l124 403h-88l-315 997h256l227 -757l230 757h256zM592 1104q-76 42 -150 88q-63 39 -156 100l99 152q72 -54 152 -107q68 -45 147 -94z" />
    <glyph glyph-name="glyph234" unicode="&#xfd;" horiz-adv-x="978" 
d="M659 0l-133 -403h-237l124 403h-88l-315 997h256l227 -757l230 757h256zM384 1243q149 92 299 201l98 -152l-156 -100q-75 -46 -151 -88z" />
    <glyph glyph-name="uni1EF7" unicode="&#x1ef7;" horiz-adv-x="978" 
d="M659 0l-133 -403h-237l124 403h-88l-315 997h256l227 -757l230 757h256zM456 1165q86 64 103 85q14 16 14 46q0 50 -69 50q-26 0 -60 -4q-28 -4 -73 -12l-20 125q94 19 166 19q112 0 158 -46q40 -40 40 -125q0 -81 -26 -117q-26 -37 -153 -130z" />
    <glyph glyph-name="uni1EF9" unicode="&#x1ef9;" horiz-adv-x="978" 
d="M659 0l-133 -403h-237l124 403h-88l-315 997h256l227 -757l230 757h256zM413 1204q-31 0 -60 -28q-11 -10 -24 -26l-21 -28l-102 84q37 69 86 110q56 48 117 48q63 0 129 -41q73 -43 106 -43q57 0 84 76l119 -62q-56 -172 -203 -172q-68 0 -131 39q-63 43 -100 43z" />
    <glyph glyph-name="uni1EF5" unicode="&#x1ef5;" horiz-adv-x="978" 
d="M659 0l-133 -403h-237l124 403h-88l-315 997h256l227 -757l230 757h256zM663 -101h209v-199h-209v199z" />
    <glyph glyph-name="divide" unicode="&#xf7;" horiz-adv-x="1706" 
 />
    <glyph glyph-name="ugrave" horiz-adv-x="582" 
 />
    <glyph glyph-name="uacute" horiz-adv-x="580" 
 />
    <glyph glyph-name="yacute" horiz-adv-x="629" 
 />
    <glyph glyph-name="Ccaron" unicode="&#x10c;" horiz-adv-x="1274" 
 />
    <glyph glyph-name="ccaron" unicode="&#x10d;" horiz-adv-x="922" 
 />
    <glyph glyph-name="Dslash" unicode="&#x110;" horiz-adv-x="1306" 
d="M81 793h141v571h508q236 0 352 -110q101 -94 101 -257v-630q0 -162 -101 -257q-116 -110 -352 -110h-508v586h-141v207zM480 793h209v-207h-209v-359h224q221 0 221 201v508q0 201 -221 201h-224v-344z" />
    <glyph glyph-name="dcroat" unicode="&#x111;" horiz-adv-x="1089" 
d="M518 1251h180v154l250 35v-189h121v-133h-121v-1118h-199l-24 84q-145 -104 -316 -104q-307 0 -307 346v340q0 352 330 352q130 0 266 -29v129h-180v133zM698 778q-122 27 -221 27q-125 0 -125 -133v-353q0 -126 123 -126q125 0 223 90v495z" />
    <glyph glyph-name="quoteleft" unicode="&#x2018;" horiz-adv-x="561" 
d="M407 868h-254v303l160 269l114 -64l-114 -221h94v-287z" />
    <glyph glyph-name="quoteright" unicode="&#x2019;" horiz-adv-x="540" 
d="M153 1405h254v-303l-159 -268l-115 63l115 221h-95v287z" />
    <glyph glyph-name="quotedblleft" unicode="&#x201c;" horiz-adv-x="970" 
d="M407 868h-254v303l160 269l114 -64l-114 -221h94v-287zM817 868h-254v303l159 269l115 -64l-115 -221h95v-287z" />
    <glyph glyph-name="quotedblright" unicode="&#x201d;" horiz-adv-x="970" 
d="M563 1405h254v-303l-160 -268l-114 63l114 221h-94v287zM153 1405h254v-303l-159 -268l-115 63l115 221h-95v287z" />
    <glyph glyph-name="ellipsis" unicode="&#x2026;" horiz-adv-x="1683" 
d="M153 287h254v-287h-254v287zM714 287h254v-287h-254v287zM1275 287h254v-287h-254v287z" />
    </font>
</defs>
</svg>
